<svg xmlns="http://www.w3.org/2000/svg" xmlns:xlink="http://www.w3.org/1999/xlink" width="24" height="24" viewBox="0 0 24 24">
  <defs>
    <style>
      .cls-1 {
        fill: #fff;
      }

      .cls-2 {
        clip-path: url(#clip-path);
      }

      .cls-3 {
        fill: none;
      }
    </style>
    <clipPath id="clip-path">
      <rect id="사각형_20130" data-name="사각형 20130" class="cls-1" width="12.622" height="13.645"/>
    </clipPath>
  </defs>
  <g id="icon_user" transform="translate(-5432 -321)">
    <g id="그룹_24792" data-name="그룹 24792" transform="translate(5438 327)">
      <g id="그룹_24791" data-name="그룹 24791" class="cls-2">
        <path id="패스_41643" data-name="패스 41643" class="cls-1" d="M12.622,518.211H0a6.294,6.294,0,0,1,.468-2.39q.049-.119.1-.236t.114-.236a6.33,6.33,0,0,1,3.567-3.1q.117-.04.236-.076t.239-.067a6.357,6.357,0,0,1,3.169,0q.12.031.238.067t.236.076a6.33,6.33,0,0,1,3.567,3.1q.06.117.114.236t.1.236a6.294,6.294,0,0,1,.468,2.39" transform="translate(0 -504.566)"/>
        <path id="패스_41644" data-name="패스 41644" class="cls-1" d="M206.891,3.445A3.445,3.445,0,1,1,203.445,0a3.445,3.445,0,0,1,3.445,3.445" transform="translate(-197.134)"/>
      </g>
    </g>
    <rect id="사각형_20131" data-name="사각형 20131" class="cls-3" width="24" height="24" transform="translate(5432 321)"/>
  </g>
</svg>
