<svg xmlns="http://www.w3.org/2000/svg" xmlns:xlink="http://www.w3.org/1999/xlink" width="120" height="120" viewBox="0 0 120 120">
  <defs>
    <style>
      .cls-1, .cls-5 {
        fill: none;
      }

      .cls-1, .cls-2 {
        stroke: #333;
      }

      .cls-1, .cls-2, .cls-4 {
        stroke-linecap: round;
        stroke-linejoin: round;
        stroke-width: 0.3px;
      }

      .cls-2 {
        fill: #333;
      }

      .cls-3 {
        clip-path: url(#clip-path);
      }

      .cls-4 {
        fill: #406eff;
        stroke: #406eff;
      }
    </style>
    <clipPath id="clip-path">
      <rect id="사각형_20115" data-name="사각형 20115" class="cls-1" width="94.685" height="101.995"/>
    </clipPath>
  </defs>
  <g id="icon_building" transform="translate(-149.126 -303.126)">
    <g id="그룹_24778" data-name="그룹 24778" transform="translate(160.851 311.791)">
      <rect id="사각형_20106" data-name="사각형 20106" class="cls-2" width="0.464" height="7.42" transform="translate(7.038 71.291)"/>
      <rect id="사각형_20107" data-name="사각형 20107" class="cls-2" width="0.464" height="7.42" transform="translate(13.066 74.537)"/>
      <g id="그룹_24777" data-name="그룹 24777">
        <g id="그룹_24776" data-name="그룹 24776" class="cls-3">
          <path id="패스_41601" data-name="패스 41601" class="cls-2" d="M21.088,164.042h-.464V156.8L7.64,149.378v6.781H7.176v-7.181a.232.232,0,0,1,.347-.2l13.449,7.687a.232.232,0,0,1,.117.2Z" transform="translate(-3.848 -79.766)"/>
          <path id="패스_41602" data-name="패스 41602" class="cls-2" d="M43.64,137.453a.464.464,0,0,1-.464-.464V99.238a.464.464,0,0,1,.231-.4l6.764-3.915.465.8L44.1,99.505v36.68l6.17-3.571.465.8-6.866,3.974a.462.462,0,0,1-.232.063" transform="translate(-23.153 -50.902)"/>
          <path id="패스_41603" data-name="패스 41603" class="cls-2" d="M.465,66.228,0,65.426,19.417,54.191a.464.464,0,0,1,.457,0l7.5,4.151-.449.812-7.268-4.024Z" transform="translate(0 -29.027)"/>
          <path id="패스_41604" data-name="패스 41604" class="cls-2" d="M20.74,145.062,7.291,137.253a.233.233,0,0,1-.115-.2v-3.226a.232.232,0,0,1,.348-.2l13.449,7.809-.233.4-13.1-7.607v2.689l13.333,7.742Z" transform="translate(-3.848 -71.641)"/>
          <path id="패스_41605" data-name="패스 41605" class="cls-2" d="M21.122,131.094a.233.233,0,0,1-.117-.032l-13.334-7.79.234-.4,12.985,7.586V127.8L7.672,120.074l.234-.4,13.334,7.789a.233.233,0,0,1,.115.2v3.2a.231.231,0,0,1-.232.232" transform="translate(-4.114 -64.176)"/>
          <path id="패스_41606" data-name="패스 41606" class="cls-4" d="M20.856,117.116a.23.23,0,0,1-.116-.031L7.291,109.276a.233.233,0,0,1-.115-.2v-3.226a.232.232,0,0,1,.348-.2l13.449,7.809a.233.233,0,0,1,.115.2v3.226a.231.231,0,0,1-.232.232M7.64,108.942l12.985,7.54v-2.69L7.64,106.252Z" transform="translate(-3.848 -56.638)"/>
          <path id="패스_41607" data-name="패스 41607" class="cls-2" d="M20.625,103.076,7.291,95.311a.233.233,0,0,1-.115-.2v-3.2a.232.232,0,0,1,.349-.2l13.334,7.766-.234.4L7.64,92.315v2.662l13.219,7.7Z" transform="translate(-3.848 -49.164)"/>
          <path id="패스_41608" data-name="패스 41608" class="cls-2" d="M20.455,128.5.408,116.959a.463.463,0,0,1-.232-.4V78.807a.463.463,0,0,1,.695-.4L20.918,89.945l-.463.8L1.1,79.609v36.681L20.918,127.7Z" transform="translate(-0.094 -42.012)"/>
          <path id="패스_41609" data-name="패스 41609" class="cls-2" d="M195.06,116.04h-.927V101.158l-6.029,3.59V111.4h-.927v-6.918a.465.465,0,0,1,.226-.4l6.956-4.142a.464.464,0,0,1,.7.4Z" transform="translate(-100.375 -53.56)"/>
          <path id="패스_41610" data-name="패스 41610" class="cls-2" d="M180.72,101.176l-6.148-3.78a.464.464,0,0,1,.016-.8l7.063-3.961a.463.463,0,0,1,.465.006l5.871,3.518-.476.8-5.641-3.38-6.14,3.443,5.476,3.366Z" transform="translate(-93.497 -49.645)"/>
          <path id="패스_41611" data-name="패스 41611" class="cls-2" d="M195.886,119.083h-.464V108.778l-2.782,1.587v6.863h-.464v-7a.233.233,0,0,1,.117-.2l3.246-1.851a.232.232,0,0,1,.347.2Z" transform="translate(-103.056 -57.995)"/>
          <path id="패스_41612" data-name="패스 41612" class="cls-2" d="M149.64,106.575a.464.464,0,0,1-.464-.464V77.232a.463.463,0,0,1,.233-.4L161,70.173a.464.464,0,0,1,.695.4v28.88a.463.463,0,0,1-.233.4l-11.594,6.657a.461.461,0,0,1-.231.062M150.1,77.5v27.81l10.666-6.125V71.375Z" transform="translate(-79.997 -37.597)"/>
          <rect id="사각형_20108" data-name="사각형 20108" class="cls-2" width="0.928" height="2.984" transform="translate(66.701 38.521) rotate(-59.965)"/>
          <rect id="사각형_20109" data-name="사각형 20109" class="cls-2" width="0.927" height="16.396" transform="translate(66.701 25.139) rotate(-59.947)"/>
          <rect id="사각형_20110" data-name="사각형 20110" class="cls-2" width="0.928" height="10.441" transform="matrix(0.501, -0.865, 0.865, 0.501, 66.757, 67.425)"/>
          <rect id="사각형_20111" data-name="사각형 20111" class="cls-2" width="0.928" height="10.834" transform="translate(66.513 79.729) rotate(-59.937)"/>
          <rect id="사각형_20112" data-name="사각형 20112" class="cls-2" width="0.928" height="14.784" transform="translate(81.083 54.71) rotate(-59.611)"/>
          <path id="패스_41613" data-name="패스 41613" class="cls-2" d="M172.64,163.552h-.464v-5.945a.232.232,0,0,1,.117-.2l10.666-6.084a.232.232,0,0,1,.347.2v6h-.464v-5.6l-10.2,5.819Z" transform="translate(-92.331 -81.132)"/>
          <rect id="사각형_20113" data-name="사각형 20113" class="cls-2" width="0.464" height="6.029" transform="translate(87.265 72.219)"/>
          <rect id="사각형_20114" data-name="사각형 20114" class="cls-2" width="0.464" height="6.029" transform="translate(82.628 75.001)"/>
          <path id="패스_41614" data-name="패스 41614" class="cls-2" d="M154.408,131.306a.231.231,0,0,1-.232-.232v-6.251a.233.233,0,0,1,.117-.2l3.246-1.851a.232.232,0,0,1,.347.2v6.252a.233.233,0,0,1-.117.2l-3.246,1.851a.237.237,0,0,1-.115.03m.232-6.348v5.717l2.782-1.587v-5.717Z" transform="translate(-82.678 -65.82)"/>
          <path id="패스_41615" data-name="패스 41615" class="cls-4" d="M163.658,125.945l-.23-.4,3.129-1.784V118.04l-2.9,1.654-.23-.4,3.246-1.851a.232.232,0,0,1,.347.2v6.252a.233.233,0,0,1-.117.2Z" transform="translate(-87.64 -62.962)"/>
          <path id="패스_41616" data-name="패스 41616" class="cls-2" d="M154.408,113.482a.226.226,0,0,1-.116-.032.232.232,0,0,1-.115-.2v-6.264a.233.233,0,0,1,.117-.2l3.028-1.727.23.4-2.911,1.66v5.73l2.681-1.529.23.4-3.028,1.727a.236.236,0,0,1-.115.03" transform="translate(-82.678 -56.338)"/>
          <path id="패스_41617" data-name="패스 41617" class="cls-2" d="M163.408,108.072a.231.231,0,0,1-.232-.232v-6.715a.233.233,0,0,1,.117-.2l3.246-1.851a.232.232,0,0,1,.347.2v6.715a.233.233,0,0,1-.117.2l-3.246,1.851a.237.237,0,0,1-.115.03m.232-6.812v6.181l2.782-1.587V99.673Z" transform="translate(-87.504 -53.112)"/>
          <path id="패스_41618" data-name="패스 41618" class="cls-2" d="M154.408,95.035a.232.232,0,0,1-.232-.232V88.088a.233.233,0,0,1,.117-.2l3.246-1.851a.232.232,0,0,1,.347.2v6.715a.234.234,0,0,1-.117.2L154.523,95a.232.232,0,0,1-.115.031m.232-6.812V94.4l2.782-1.586V86.636Z" transform="translate(-82.678 -46.121)"/>
          <path id="패스_41619" data-name="패스 41619" class="cls-2" d="M164.129,89.72l-.23-.4,2.911-1.66v-5.73l-2.681,1.529-.23-.4,3.028-1.727a.232.232,0,0,1,.347.2v6.264a.233.233,0,0,1-.117.2Z" transform="translate(-87.892 -43.595)"/>
          <path id="패스_41620" data-name="패스 41620" class="cls-2" d="M163.64,156.233a.463.463,0,0,1-.464-.464V143.261a.464.464,0,0,1,.233-.4l18.086-10.4a.464.464,0,0,1,.695.4v12.508a.463.463,0,0,1-.233.4l-18.086,10.4a.461.461,0,0,1-.231.062m.464-12.7v11.438l17.158-9.862V133.667Z" transform="translate(-87.504 -71.002)"/>
          <path id="패스_41621" data-name="패스 41621" class="cls-2" d="M79.2,191.556h-.927V179.519L74.1,177.108v11.666h-.927V176.3a.463.463,0,0,1,.7-.4l5.1,2.948a.463.463,0,0,1,.232.4Z" transform="translate(-39.241 -94.296)"/>
          <path id="패스_41622" data-name="패스 41622" class="cls-2" d="M116.1,191.556h-.927v-12.3a.463.463,0,0,1,.232-.4l5.1-2.948a.463.463,0,0,1,.7.4v12.47h-.927V177.108l-4.174,2.412Z" transform="translate(-61.764 -94.296)"/>
          <path id="패스_41623" data-name="패스 41623" class="cls-2" d="M78.929,163.706a.229.229,0,0,1-.116-.031L66.292,156.43a.231.231,0,0,1-.116-.2v-4a.232.232,0,0,1,.348-.2l12.521,7.244a.231.231,0,0,1,.116.2v4a.232.232,0,0,1-.232.232M66.64,156.1,78.7,163.072v-3.46L66.64,152.636Z" transform="translate(-35.487 -81.512)"/>
          <path id="패스_41624" data-name="패스 41624" class="cls-2" d="M107.408,163.9a.235.235,0,0,1-.116-.031.232.232,0,0,1-.116-.2v-4.017a.232.232,0,0,1,.116-.2l12.985-7.48a.232.232,0,0,1,.348.2v4.017a.233.233,0,0,1-.116.2l-12.985,7.48a.236.236,0,0,1-.116.031m.232-4.115v3.482l12.521-7.213v-3.482Z" transform="translate(-57.474 -81.476)"/>
          <path id="패스_41625" data-name="패스 41625" class="cls-4" d="M78.929,142.963a.229.229,0,0,1-.116-.031l-12.521-7.244a.231.231,0,0,1-.116-.2v-4a.232.232,0,0,1,.348-.2l12.521,7.244a.231.231,0,0,1,.116.2v4a.232.232,0,0,1-.232.232m-12.289-7.61L78.7,142.329v-3.46L66.64,131.893Z" transform="translate(-35.487 -70.389)"/>
          <path id="패스_41626" data-name="패스 41626" class="cls-2" d="M107.408,143.188a.235.235,0,0,1-.116-.031.231.231,0,0,1-.116-.2v-4.017a.233.233,0,0,1,.116-.2l12.985-7.48.232.4-12.869,7.413v3.482l12.637-7.28.232.4-12.985,7.48a.236.236,0,0,1-.116.031" transform="translate(-57.474 -70.388)"/>
          <path id="패스_41627" data-name="패스 41627" class="cls-2" d="M78.756,122.192,66.292,114.98a.231.231,0,0,1-.116-.2V110.8a.231.231,0,0,1,.348-.2l12.464,7.211-.232.4L66.64,111.2v3.442l12.348,7.144Z" transform="translate(-35.487 -59.294)"/>
          <path id="패스_41628" data-name="패스 41628" class="cls-4" d="M107.176,122.446l12.985-7.48v-4.017l-12.985,7.48Z" transform="translate(-57.474 -59.497)"/>
          <path id="패스_41629" data-name="패스 41629" class="cls-2" d="M78.929,101.477a.229.229,0,0,1-.116-.031L66.292,94.2a.231.231,0,0,1-.116-.2V90a.232.232,0,0,1,.348-.2l12.521,7.244a.231.231,0,0,1,.116.2v4a.232.232,0,0,1-.232.232M66.64,93.867,78.7,100.843v-3.46L66.64,90.407Z" transform="translate(-35.487 -48.142)"/>
          <path id="패스_41630" data-name="패스 41630" class="cls-2" d="M107.408,101.667a.235.235,0,0,1-.116-.031.232.232,0,0,1-.116-.2V97.418a.232.232,0,0,1,.116-.2l12.985-7.48a.232.232,0,0,1,.348.2v4.017a.233.233,0,0,1-.116.2l-12.985,7.48a.236.236,0,0,1-.116.031m.232-4.115v3.482l12.521-7.213V90.339Z" transform="translate(-57.474 -48.106)"/>
          <path id="패스_41631" data-name="패스 41631" class="cls-4" d="M78.7,80.769,66.176,73.525v-4L78.7,76.773Z" transform="translate(-35.487 -37.286)"/>
          <path id="패스_41632" data-name="패스 41632" class="cls-4" d="M106.934,80.9l-.232-.4,12.741-7.34V69.717l-12.509,7.206-.232-.4,12.857-7.406a.232.232,0,0,1,.348.2v3.978a.232.232,0,0,1-.116.2Z" transform="translate(-57.22 -37.047)"/>
          <path id="패스_41633" data-name="패스 41633" class="cls-2" d="M78.929,59.99a.229.229,0,0,1-.116-.032L66.292,52.715a.231.231,0,0,1-.116-.2v-4a.231.231,0,0,1,.348-.2l12.521,7.244a.232.232,0,0,1,.116.2v4a.232.232,0,0,1-.232.232M66.64,52.38,78.7,59.356V55.9L66.64,48.92Z" transform="translate(-35.487 -25.894)"/>
          <path id="패스_41634" data-name="패스 41634" class="cls-2" d="M107.408,60.18a.232.232,0,0,1-.232-.232V55.931a.232.232,0,0,1,.116-.2l12.985-7.48a.232.232,0,0,1,.348.2v4.017a.232.232,0,0,1-.116.2l-12.985,7.48a.231.231,0,0,1-.116.031m.232-4.115v3.482l12.521-7.213V48.852Z" transform="translate(-57.474 -25.858)"/>
          <path id="패스_41635" data-name="패스 41635" class="cls-4" d="M76.276,41.125a.233.233,0,0,1-.115-.031L55.292,29.08a.232.232,0,0,1-.116-.2V25.537a.232.232,0,0,1,.347-.2L76.392,37.349a.232.232,0,0,1,.116.2v3.343a.232.232,0,0,1-.232.232M55.64,28.745l20.4,11.747V37.684L55.64,25.937Z" transform="translate(-29.589 -13.57)"/>
          <path id="패스_41636" data-name="패스 41636" class="cls-4" d="M100.658,41.189l-.231-.4L121.179,28.9V26.081L100.658,37.839l-.231-.4L121.3,25.48a.232.232,0,0,1,.347.2v3.35a.232.232,0,0,1-.116.2Z" transform="translate(-53.855 -13.647)"/>
          <path id="패스_41637" data-name="패스 41637" class="cls-4" d="M96.9,12.383,75.536.5,55.247,12.3l-.234-.406L75.417.031a.233.233,0,0,1,.23,0L97.121,11.973Z" transform="translate(-29.426 0)"/>
          <path id="패스_41638" data-name="패스 41638" class="cls-2" d="M78.117,121.691a.463.463,0,0,1-.231-.062L58.408,110.417a.463.463,0,0,1-.232-.4V36.73H59.1v73.017l18.55,10.678V47.86h.927v73.368a.463.463,0,0,1-.464.464" transform="translate(-31.197 -19.697)"/>
          <path id="패스_41639" data-name="패스 41639" class="cls-2" d="M100.958,121.638l-.465-.8,18.866-10.918V36.729h.927v73.455a.465.465,0,0,1-.231.4Z" transform="translate(-53.89 -19.696)"/>
        </g>
      </g>
    </g>
    <rect id="사각형_20125" data-name="사각형 20125" class="cls-5" width="120" height="120" transform="translate(149.126 303.126)"/>
  </g>
</svg>
