<svg xmlns="http://www.w3.org/2000/svg" width="323.5" height="40" viewBox="0 0 323.5 40">
  <defs>
    <style>
      .cls-1, .cls-2 {
        fill: #fff;
      }

      .cls-1 {
        stroke: rgba(0,0,0,0);
        stroke-miterlimit: 10;
      }

      .cls-2 {
        font-size: 20px;
        font-family: Roboto-Bold, Roboto;
        font-weight: 700;
      }

      .cls-3 {
        fill: none;
      }
    </style>
  </defs>
  <g id="image_Logo" transform="translate(-266.5 183)">
    <g id="그룹_1653" data-name="그룹 1653" transform="translate(267 -189.403)">
      <g id="그룹_24304" data-name="그룹 24304" transform="translate(0 0)">
        <g id="그룹_24753" data-name="그룹 24753" transform="translate(0 6.553)">
          <path id="합치기_15" data-name="합치기 15" class="cls-1" d="M-5357.113,1922.7c-6.4-.489-13.158-4.529-12.879-12.246a10.018,10.018,0,0,1,1.261-4.593,13.272,13.272,0,0,1,11.116-6.4,13.914,13.914,0,0,1,4.021.13,11.206,11.206,0,0,1,.961-5.229,9.051,9.051,0,0,1,5.462-4.5,10,10,0,0,1,7.655.507,9.882,9.882,0,0,1,2.7,2.194,2.016,2.016,0,0,1-.222,2.858,2.06,2.06,0,0,1-2.883-.218,5.828,5.828,0,0,0-1.54-1.27,5.893,5.893,0,0,0-4.44-.218,4.99,4.99,0,0,0-3.038,2.394,9.588,9.588,0,0,0-.211,5.952,2.019,2.019,0,0,1-.742,2.062,2.064,2.064,0,0,1-2.2.191,9.248,9.248,0,0,0-5.034-.826,2.18,2.18,0,0,1-.284.025,9.257,9.257,0,0,0-7.75,4.334,6.009,6.009,0,0,0-.743,2.762c-.183,5.072,4.442,7.7,9.107,8.061,4.613.343,9.623-1.286,14.9-4.871a118,118,0,0,0,9.829-7.846c2.018-1.728,4.1-3.514,6.092-5.074a14.719,14.719,0,0,1,3.278-1.922,2.049,2.049,0,0,1,2.682,1.071,2.019,2.019,0,0,1-1.078,2.658,10.714,10.714,0,0,0-2.342,1.368c-1.921,1.51-3.883,3.187-5.96,4.966a121.221,121.221,0,0,1-10.187,8.125c-5.5,3.738-10.865,5.626-15.969,5.626C-5356.077,1922.758-5356.6,1922.74-5357.113,1922.7Zm37.262-.1a35.181,35.181,0,0,1-10.5-2.41,2.019,2.019,0,0,1-1.106-2.647,2.049,2.049,0,0,1,2.672-1.1,31.22,31.22,0,0,0,9.293,2.116,16.665,16.665,0,0,0,6.6-.449,14.377,14.377,0,0,0,7.135-4.522c2.079-2.536,2.426-7.175-.236-9.357a8.952,8.952,0,0,0-4.817-1.876c-.309-.011-.893-.045-1.236-.033a2.068,2.068,0,0,1-1.035-.03,2.024,2.024,0,0,1-1.387-2.515v-.006c.57-1.929-.267-4.542-1.757-5.478a8.4,8.4,0,0,0-6.076-.745c-3.109.677-5.531,2.957-8.092,5.366-.834.784-1.663,1.561-2.511,2.284a126.479,126.479,0,0,1-12.95,9.694c-2.369,1.542-5.57,3.251-9.322,2.83a2.032,2.032,0,0,1-1.8-2.245,2.047,2.047,0,0,1,2.266-1.782c1.935.224,3.911-.433,6.608-2.191a122.241,122.241,0,0,0,12.532-9.38c.8-.68,1.577-1.414,2.361-2.15,2.722-2.562,5.808-5.465,10.03-6.383a12.374,12.374,0,0,1,9.144,1.28,9.006,9.006,0,0,1,3.845,7.467,13.29,13.29,0,0,1,6.8,2.77c4.631,3.793,4.143,10.968.808,15.036a18.356,18.356,0,0,1-9.232,5.878,18.982,18.982,0,0,1-5.2.719C-5317.915,1922.74-5318.836,1922.684-5319.851,1922.6Z" transform="translate(5370 -1886.253)"/>
        </g>
        <text id="Mobile_Office_Reservation" data-name="Mobile Office Reservation" class="cls-2" transform="translate(82 31.806)"><tspan x="0" y="0">Mobile Office Reservation</tspan></text>
      </g>
    </g>
    <rect id="사각형_2959" data-name="사각형 2959" class="cls-3" width="323" height="40" transform="translate(267 -183)"/>
  </g>
</svg>
