<svg xmlns="http://www.w3.org/2000/svg" xmlns:xlink="http://www.w3.org/1999/xlink" width="585.166" height="360.659" viewBox="0 0 585.166 360.659">
  <defs>
    <clipPath id="clip-path">
      <rect id="사각형_19639" data-name="사각형 19639" width="353.431" height="360.659" transform="translate(-48 -42)" fill="none"/>
    </clipPath>
    <clipPath id="clip-path-2">
      <rect id="사각형_19640" data-name="사각형 19640" width="35.735" height="30.178" transform="translate(0 0)" fill="none"/>
    </clipPath>
  </defs>
  <g id="그룹_24359" data-name="그룹 24359" transform="translate(-393.569 -313)">
    <g id="그룹_24338" data-name="그룹 24338" transform="translate(441.569 355)">
      <g id="그룹_24337" data-name="그룹 24337" transform="translate(0)" clip-path="url(#clip-path)">
        <path id="패스_41820" data-name="패스 41820" d="M117.834,323.607c1.717,3.3,3.7,4.656,7.894,6.15-3.81.01-7.921.466-11.617-.68a71.292,71.292,0,0,0-10.32-2.425c-7.748-1.228-6.723-6.869-5.288-13.065,1.841-7.937,7.521-5.956,14.907-5.821-1.139-.022,3.161,13.018,3.591,14.046.277.657.551,1.252.833,1.794" transform="translate(-10.213 -32.205)" fill="#fff"/>
        <path id="패스_41821" data-name="패스 41821" d="M117.834,323.607c1.717,3.3,3.7,4.656,7.894,6.15-3.81.01-7.921.466-11.617-.68a71.292,71.292,0,0,0-10.32-2.425c-7.748-1.228-6.723-6.869-5.288-13.065,1.841-7.937,7.521-5.956,14.907-5.821-1.139-.022,3.161,13.018,3.591,14.046C117.278,322.47,117.553,323.064,117.834,323.607Z" transform="translate(-10.213 -32.205)" fill="none" stroke="#000" stroke-linecap="round" stroke-linejoin="round" stroke-width="2"/>
        <path id="패스_41822" data-name="패스 41822" d="M127.786,331.98a21.628,21.628,0,0,1-4.218-3.637c-1.292-1.378-2.291-2.683-4.285-3.055,0,.063,0,.122,0,.182.055,2.367,1.808,3.619,3.329,5.353-.552-.629-3.235-.871-4-1.079q-4.8-1.292-9.6-2.581c-3.319-.9-10.576-1.425-12.729-4.288-.43.932-1.729,8.84-.591,9.177,3.561,1.062,7.088,2.436,10.589,3.721,2.862,1.051,3.78.278,4.491-1.484,1.349.3,2.7.58,4.056.878l18.428,4.08L134.5,336.4c.078-.175-6.291-4.143-6.717-4.422" transform="translate(-9.976 -33.821)" fill="#406eff"/>
        <path id="패스_41823" data-name="패스 41823" d="M127.786,331.98a21.628,21.628,0,0,1-4.218-3.637c-1.292-1.378-2.291-2.683-4.285-3.055,0,.063,0,.122,0,.182.055,2.367,1.808,3.619,3.329,5.353-.552-.629-3.235-.871-4-1.079q-4.8-1.292-9.6-2.581c-3.319-.9-10.576-1.425-12.729-4.288-.43.932-1.729,8.84-.591,9.177,3.561,1.062,7.088,2.436,10.589,3.721,2.862,1.051,3.78.278,4.491-1.484,1.349.3,2.7.58,4.056.878l18.428,4.08L134.5,336.4C134.581,336.226,128.212,332.258,127.786,331.98Z" transform="translate(-9.976 -33.821)" fill="none" stroke="#000" stroke-linecap="round" stroke-linejoin="round" stroke-width="2"/>
        <path id="패스_41824" data-name="패스 41824" d="M70.219,206.756a12.918,12.918,0,0,1,2.363.077c5.48.645,10.451,3.267,16.163,3.715,5.9.464,11.863.143,17.658,1.581,23.844,5.914,20.347,31.232,17.3,49.161-.673,3.956-6.945,45.832-11.855,45.044-.019,0-20.6-3.342-20.6-3.342,1.212-21.232,2.363-42.469,3.64-63.7-13.593.12-32.583-7.38-31.609-23.482.329-5.456,2.327-8.747,6.942-9.058" transform="translate(-6.624 -21.655)" fill="#fff"/>
        <path id="패스_41825" data-name="패스 41825" d="M70.219,206.756a12.918,12.918,0,0,1,2.363.077c5.48.645,10.451,3.267,16.163,3.715,5.9.464,11.863.143,17.658,1.581,23.844,5.914,20.347,31.232,17.3,49.161-.673,3.956-6.945,45.832-11.855,45.044-.019,0-20.6-3.342-20.6-3.342,1.212-21.232,2.363-42.469,3.64-63.7-13.593.12-32.583-7.38-31.609-23.482C63.606,210.359,65.6,207.067,70.219,206.756Z" transform="translate(-6.624 -21.655)" fill="none" stroke="#000" stroke-linecap="round" stroke-linejoin="round" stroke-width="2"/>
        <path id="패스_41826" data-name="패스 41826" d="M99.387,243.1a14.073,14.073,0,0,0,6.987-3" transform="translate(-10.411 -25.15)" fill="none" stroke="#231100" stroke-linecap="round" stroke-miterlimit="10" stroke-width="2"/>
        <path id="패스_41827" data-name="패스 41827" d="M155.085,333.97c2.525,2.738,4.8,3.518,9.235,3.859-3.674,1.01-7.521,2.532-11.388,2.4a71.294,71.294,0,0,0-10.594.374c-7.8.851-8.3-4.86-8.539-11.216-.313-8.14,5.687-7.723,12.85-9.537-1.1.279,6.474,11.728,7.158,12.609.44.56.862,1.063,1.276,1.511" transform="translate(-14.014 -33.504)" fill="#fff"/>
        <path id="패스_41828" data-name="패스 41828" d="M155.085,333.97c2.525,2.738,4.8,3.518,9.235,3.859-3.674,1.01-7.521,2.532-11.388,2.4a71.294,71.294,0,0,0-10.594.374c-7.8.851-8.3-4.86-8.539-11.216-.313-8.14,5.687-7.723,12.85-9.537-1.1.279,6.474,11.728,7.158,12.609C154.249,333.019,154.672,333.521,155.085,333.97Z" transform="translate(-14.014 -33.504)" fill="none" stroke="#000" stroke-linecap="round" stroke-linejoin="round" stroke-width="2"/>
        <path id="패스_41829" data-name="패스 41829" d="M166.7,339.414a21.576,21.576,0,0,1-5.025-2.4c-1.61-.989-2.916-1.986-4.937-1.82.015.059.03.119.048.176.675,2.269,2.695,3.016,4.618,4.288-.7-.463-3.348.011-4.144.012l-9.941.034c-3.439.01-10.581,1.408-13.411-.79-.167,1.013.657,8.984,1.845,9.012,3.715.087,7.48.484,11.194.8,3.038.262,3.721-.724,3.944-2.613,1.38-.067,2.761-.15,4.144-.219l18.853-.911.455-3.073c.029-.189-7.16-2.342-7.644-2.5" transform="translate(-14.025 -35.11)" fill="#406eff"/>
        <path id="패스_41830" data-name="패스 41830" d="M166.7,339.414a21.576,21.576,0,0,1-5.025-2.4c-1.61-.989-2.916-1.986-4.937-1.82.015.059.03.119.048.176.675,2.269,2.695,3.016,4.618,4.288-.7-.463-3.348.011-4.144.012l-9.941.034c-3.439.01-10.581,1.408-13.411-.79-.167,1.013.657,8.984,1.845,9.012,3.715.087,7.48.484,11.194.8,3.038.262,3.721-.724,3.944-2.613,1.38-.067,2.761-.15,4.144-.219l18.853-.911.455-3.073C174.376,341.725,167.187,339.572,166.7,339.414Z" transform="translate(-14.025 -35.11)" fill="none" stroke="#000" stroke-linecap="round" stroke-linejoin="round" stroke-width="2"/>
        <path id="패스_41831" data-name="패스 41831" d="M70.573,207.2c10.355.163,20.713.363,30.928,1.675,14.089,1.811,31.292,5.587,35.374,21.43,1.5,5.816.228,13.266.33,19.231.164,9.622.548,19.24.768,28.849.141,6.086-.025,12.172-.272,18.252-.227,5.554.752,11.5-.168,16.961-5.491,1.223-10.825,1.524-16.207,3.341-3.122-5.725-3.833-13.761-5.252-20.063-1.695-7.523-3.216-15.085-4.942-22.6-2.426-10.566-2.466-22.055-4.235-32.916-12.881.722-25.516-.695-38.325-.7-5.543,0-11.038.347-16.571-.269-10.028-1.118-20.8-4.75-23.583-15.625-3.884-15.2,7.077-19.11,19.553-18.283,7.5.5,15.046.6,22.6.715" transform="translate(-2.894 -21.619)" fill="#fff"/>
        <path id="패스_41832" data-name="패스 41832" d="M70.573,207.2c10.355.163,20.713.363,30.928,1.675,14.089,1.811,31.292,5.587,35.374,21.43,1.5,5.816.228,13.266.33,19.231.164,9.622.548,19.24.768,28.849.141,6.086-.025,12.172-.272,18.252-.227,5.554.752,11.5-.168,16.961-5.491,1.223-10.825,1.524-16.207,3.341-3.122-5.725-3.833-13.761-5.252-20.063-1.695-7.523-3.216-15.085-4.942-22.6-2.426-10.566-2.466-22.055-4.235-32.916-12.881.722-25.516-.695-38.325-.7-5.543,0-11.038.347-16.571-.269-10.028-1.118-20.8-4.75-23.583-15.625-3.884-15.2,7.077-19.11,19.553-18.283C55.469,206.984,63.02,207.083,70.573,207.2Z" transform="translate(-2.894 -21.619)" fill="none" stroke="#000" stroke-linecap="round" stroke-linejoin="round" stroke-width="2"/>
        <rect id="사각형_19629" data-name="사각형 19629" width="31.334" height="134.288" transform="translate(149.047 179.895)" fill="#fff"/>
        <rect id="사각형_19630" data-name="사각형 19630" width="31.334" height="134.288" transform="translate(149.047 179.895)" fill="none" stroke="#000" stroke-linecap="round" stroke-linejoin="round" stroke-width="2"/>
        <rect id="사각형_19631" data-name="사각형 19631" width="183.526" height="6.267" transform="translate(72.055 166.466)" fill="#fff"/>
        <rect id="사각형_19632" data-name="사각형 19632" width="183.526" height="6.267" transform="translate(72.055 166.466)" fill="none" stroke="#000" stroke-linecap="round" stroke-linejoin="round" stroke-width="2"/>
        <rect id="사각형_19633" data-name="사각형 19633" width="157.564" height="9.848" transform="translate(84.589 172.733)" fill="#fff"/>
        <rect id="사각형_19634" data-name="사각형 19634" width="157.564" height="9.848" transform="translate(84.589 172.733)" fill="none" stroke="#000" stroke-linecap="round" stroke-linejoin="round" stroke-width="2"/>
        <rect id="사각형_19635" data-name="사각형 19635" width="75.201" height="6.267" transform="translate(127.561 312.392)" fill="#131313"/>
        <rect id="사각형_19636" data-name="사각형 19636" width="6.267" height="75.201" transform="translate(61.312 222.867)" fill="#131313"/>
        <path id="패스_41833" data-name="패스 41833" d="M93.939,338.211H41.119a3.133,3.133,0,1,1,0-6.267h52.82a3.133,3.133,0,1,1,0,6.267" transform="translate(-3.979 -34.771)" fill="#131313"/>
        <path id="패스_41834" data-name="패스 41834" d="M37.23,341.069a4.665,4.665,0,1,0,4.664-4.665,4.664,4.664,0,0,0-4.664,4.665" transform="translate(-3.9 -35.238)" fill="#231100"/>
        <path id="패스_41835" data-name="패스 41835" d="M92.921,340.744a4.666,4.666,0,1,0,4.665-4.665,4.665,4.665,0,0,0-4.665,4.665" transform="translate(-9.733 -35.204)" fill="#231100"/>
        <path id="패스_41836" data-name="패스 41836" d="M65.564,342.744a4.665,4.665,0,1,0,4.664-4.665,4.664,4.664,0,0,0-4.664,4.665" transform="translate(-6.868 -35.414)" fill="#231100"/>
        <path id="패스_41837" data-name="패스 41837" d="M64.486,257.3c0,1.692,3.126,3.062,6.267,3.062s6.267-1.37,6.267-3.062v-9.183c0-1.692-3.127-3.062-6.267-3.062s-6.267,1.37-6.267,3.062Z" transform="translate(-6.755 -25.669)" fill="#ccc"/>
        <path id="패스_41838" data-name="패스 41838" d="M64.486,257.3c0,1.692,3.126,3.062,6.267,3.062s6.267-1.37,6.267-3.062v-9.183c0-1.692-3.127-3.062-6.267-3.062s-6.267,1.37-6.267,3.062Z" transform="translate(-6.755 -25.669)" fill="none" stroke="#000" stroke-linecap="round" stroke-linejoin="round" stroke-width="2"/>
        <path id="패스_41839" data-name="패스 41839" d="M94.269,241.507h-.082l-52.306-1.79h0c-.662,0-17.219-.189-26.933-29.987l-.043-.044L.121,156.464a3.294,3.294,0,0,1,6.356-1.729l14.763,53.2C29.367,232.8,41.838,233.5,41.961,233.5l52.386,1.269a3.37,3.37,0,0,1-.079,6.736" transform="translate(0 -15.954)" fill="#131313"/>
        <path id="패스_41840" data-name="패스 41840" d="M65.486,333.715v-7.44c0-1.69,2.679-3.061,5.819-3.061s5.819,1.371,5.819,3.061v7.44Z" transform="translate(-6.86 -33.857)" fill="#ccc"/>
        <path id="패스_41841" data-name="패스 41841" d="M65.486,333.715v-7.44c0-1.69,2.679-3.061,5.819-3.061s5.819,1.371,5.819,3.061v7.44Z" transform="translate(-6.86 -33.857)" fill="none" stroke="#000" stroke-linecap="round" stroke-linejoin="round" stroke-width="2"/>
        <path id="패스_41842" data-name="패스 41842" d="M44.463,258.991c.055,0,.108,0,.164-.006l23.616-1.749a2.186,2.186,0,1,0-.323-4.361L44.3,254.624a2.186,2.186,0,0,0,.159,4.367" transform="translate(-4.429 -26.488)" fill="#ccc"/>
        <path id="패스_41843" data-name="패스 41843" d="M44.463,258.991c.055,0,.108,0,.164-.006l23.616-1.749a2.186,2.186,0,1,0-.323-4.361L44.3,254.624a2.186,2.186,0,0,0,.159,4.367Z" transform="translate(-4.429 -26.488)" fill="none" stroke="#000" stroke-linecap="round" stroke-linejoin="round" stroke-width="2"/>
        <path id="패스_41844" data-name="패스 41844" d="M38.036,113.322c4.594-1.239,7.785.39,12.061,1.573,4.035,1.118,8.066.987,11.617,3.608,4.152,3.067,7.7,7.436,10.7,11.605,10.9,15.132,2.2,31.152,2.206,48.248,0,7.45-1.025,11.73-.254,19.413-3.714,1.8-43.946,4.044-43.9,4.685-.474-6.576.027-12.82-.738-19.438-.668-5.778-2.023-11.452-2.695-17.231-1.682-14.471-2.114-29.891,3.6-43.6,1.586-3.8,3.184-7.732,7.4-8.867" transform="translate(-2.716 -11.824)" fill="#406eff"/>
        <path id="패스_41845" data-name="패스 41845" d="M38.036,113.322c4.594-1.239,7.785.39,12.061,1.573,4.035,1.118,8.066.987,11.617,3.608,4.152,3.067,7.7,7.436,10.7,11.605,10.9,15.132,2.2,31.152,2.206,48.248,0,7.45-1.025,11.73-.254,19.413-3.714,1.8-43.946,4.044-43.9,4.685-.474-6.576.027-12.82-.738-19.438-.668-5.778-2.023-11.452-2.695-17.231-1.682-14.471-2.114-29.891,3.6-43.6C32.224,118.387,33.822,114.457,38.036,113.322Z" transform="translate(-2.716 -11.824)" fill="none" stroke="#000" stroke-linecap="round" stroke-linejoin="round" stroke-width="2"/>
        <path id="패스_41846" data-name="패스 41846" d="M40.967,109.773a16.883,16.883,0,0,0-2.745,1.705,84.249,84.249,0,0,0,15.8,6.009,40.062,40.062,0,0,0,10.918.939c-2-1.887-4.158-3.5-5.039-6.249-1.005-3.133-.569-6.564-1.469-9.734C57.536,99.3,54.946,94.2,57.2,91.1c-5.96,1.066-11.952,2.4-17.927,3.184,1.671-.2,2.549,7.271,2.683,8.256.231,1.694.917,4.438.072,6.066a3.118,3.118,0,0,1-1.064,1.168" transform="translate(-4.004 -9.542)" fill="#fff"/>
        <path id="패스_41847" data-name="패스 41847" d="M40.967,109.773a16.883,16.883,0,0,0-2.745,1.705,84.249,84.249,0,0,0,15.8,6.009,40.062,40.062,0,0,0,10.918.939c-2-1.887-4.158-3.5-5.039-6.249-1.005-3.133-.569-6.564-1.469-9.734C57.536,99.3,54.946,94.2,57.2,91.1c-5.96,1.066-11.952,2.4-17.927,3.184,1.671-.2,2.549,7.271,2.683,8.256.231,1.694.917,4.438.072,6.066A3.118,3.118,0,0,1,40.967,109.773Z" transform="translate(-4.004 -9.542)" fill="none" stroke="#000" stroke-linecap="round" stroke-linejoin="round" stroke-width="2"/>
        <path id="패스_41848" data-name="패스 41848" d="M122.173,174.093c3.032-1.253,7.613,1.451,9.687,3.472,1.64,1.6,4.982,3.928,5.549,6.241,1.184,4.826-4.305,1.768-6.838,1.144-2.574-.634-6.35.359-8.561-1.258-2.555-1.869-3.209-8.2.164-9.6" transform="translate(-12.556 -18.203)" fill="#fff"/>
        <path id="패스_41849" data-name="패스 41849" d="M122.173,174.093c3.032-1.253,7.613,1.451,9.687,3.472,1.64,1.6,4.982,3.928,5.549,6.241,1.184,4.826-4.305,1.768-6.838,1.144-2.574-.634-6.35.359-8.561-1.258C119.454,181.822,118.8,175.492,122.173,174.093Z" transform="translate(-12.556 -18.203)" fill="none" stroke="#000" stroke-linecap="round" stroke-linejoin="round" stroke-width="2"/>
        <path id="패스_41850" data-name="패스 41850" d="M62.686,129.295l12.081,32.283,40.195,6.955-2.625,14c-14.363-.912-30.948-.786-45.2-2.338-18.8-2.05-24.4-28.684-32.655-42.258" transform="translate(-3.612 -13.544)" fill="#406eff"/>
        <path id="패스_41851" data-name="패스 41851" d="M62.686,129.295l12.081,32.283,40.195,6.955-2.625,14c-14.363-.912-30.948-.786-45.2-2.338-18.8-2.05-24.4-28.684-32.655-42.258" transform="translate(-3.612 -13.544)" fill="none" stroke="#000" stroke-linecap="round" stroke-linejoin="round" stroke-width="2"/>
        <path id="패스_41852" data-name="패스 41852" d="M119.236,185.193h40.2l27.138-44.438a3.13,3.13,0,0,0-1.013-4.267,3.066,3.066,0,0,0-4.21,1.028l-25.345,41.411h-36.77a3.134,3.134,0,0,0,0,6.267" transform="translate(-12.169 -14.25)" fill="#131313"/>
        <path id="패스_41853" data-name="패스 41853" d="M79.648,164.944a19.709,19.709,0,0,0-7.162,5.371" transform="translate(-7.593 -17.278)" fill="none" stroke="#000" stroke-linecap="round" stroke-linejoin="round" stroke-width="2"/>
        <path id="패스_41854" data-name="패스 41854" d="M57.444,98.257A18.644,18.644,0,0,0,73.2,77.081l-1.54-10.494a18.665,18.665,0,0,0-36.934,5.422L36.266,82.5A18.667,18.667,0,0,0,48.339,97.333" transform="translate(-3.617 -5.304)" fill="#fff"/>
        <path id="패스_41855" data-name="패스 41855" d="M57.444,98.257A18.644,18.644,0,0,0,73.2,77.081l-1.54-10.494a18.665,18.665,0,0,0-36.934,5.422L36.266,82.5A18.667,18.667,0,0,0,48.339,97.333" transform="translate(-3.617 -5.304)" fill="none" stroke="#000" stroke-linecap="round" stroke-linejoin="round" stroke-width="2"/>
        <path id="패스_41856" data-name="패스 41856" d="M57.712,47.5c13.2,4.261-.1,17.2-6.965,20.96-5.051,2.763-12.162,1.755-14.991,8.215-2.635,6.015,1.888,13.368,4.922,18.365-4.63-7.629-13.293-12.753-16.78-21.51-3.525-8.855,2.871-22.465,12.492-24.574,7.3-1.6,13.838-3.869,21.321-1.456" transform="translate(-2.401 -4.866)" fill="#131313"/>
        <path id="패스_41857" data-name="패스 41857" d="M38.264,78c-1.346-2.749-6.47-1.469-7.19,1.169-.9,3.274,3.4,7.077,6.324,7.534" transform="translate(-3.242 -8.009)" fill="#fff"/>
        <path id="패스_41858" data-name="패스 41858" d="M38.264,78c-1.346-2.749-6.47-1.469-7.19,1.169-.9,3.274,3.4,7.077,6.324,7.534" transform="translate(-3.242 -8.009)" fill="none" stroke="#000" stroke-linecap="round" stroke-linejoin="round" stroke-width="2"/>
        <path id="패스_41859" data-name="패스 41859" d="M35.242,81.143a3.536,3.536,0,0,1,2.26,2.24" transform="translate(-3.692 -8.5)" fill="none" stroke="#000" stroke-linecap="round" stroke-linejoin="round" stroke-width="2"/>
        <path id="패스_41860" data-name="패스 41860" d="M58.138,77.771c.153,1.044.685,1.83,1.184,1.756s.788-.979.635-2.023-.683-1.828-1.187-1.755-.785.979-.632,2.021" transform="translate(-6.086 -7.934)"/>
        <path id="패스_41861" data-name="패스 41861" d="M58.138,77.771c.153,1.044.685,1.83,1.184,1.756s.788-.979.635-2.023-.683-1.828-1.187-1.755S57.985,76.728,58.138,77.771Z" transform="translate(-6.086 -7.934)" fill="none" stroke="#000" stroke-linecap="round" stroke-linejoin="round" stroke-width="2"/>
        <path id="패스_41862" data-name="패스 41862" d="M72.237,74.346c.153,1.044.686,1.829,1.184,1.756s.788-.979.634-2.023-.684-1.829-1.187-1.756-.784.979-.631,2.022" transform="translate(-7.562 -7.575)"/>
        <path id="패스_41863" data-name="패스 41863" d="M72.237,74.346c.153,1.044.686,1.829,1.184,1.756s.788-.979.634-2.023-.684-1.829-1.187-1.756S72.084,73.3,72.237,74.346Z" transform="translate(-7.562 -7.575)" fill="none" stroke="#000" stroke-linecap="round" stroke-linejoin="round" stroke-width="2"/>
        <path id="패스_41864" data-name="패스 41864" d="M65.23,50.677c3.577,3.467,4.184,5.057,1.769,9.679a21.6,21.6,0,0,1-6.721,7.511" transform="translate(-6.314 -5.308)" fill="none" stroke="#000" stroke-linecap="round" stroke-linejoin="round" stroke-width="2"/>
        <path id="패스_41865" data-name="패스 41865" d="M58.9,68.524c3.79-2.338,12.75-17.131,5.5-19.673,7.216,2.526,8.442,10.452,5.417,15.491-2.01,3.346-7.268,5.626-10.912,4.183" transform="translate(-6.17 -5.117)" fill="#131313"/>
        <path id="패스_41866" data-name="패스 41866" d="M62.624,57.611C59.258,63.594,49.9,77.7,41.017,73.418" transform="translate(-4.297 -6.035)" fill="none" stroke="#000" stroke-linecap="round" stroke-linejoin="round" stroke-width="2"/>
        <path id="패스_41867" data-name="패스 41867" d="M67.69,73.513c-.514,1.917,2.5,5.534,3.585,7.387A10.432,10.432,0,0,1,68.3,82.33" transform="translate(-7.084 -7.7)" fill="none" stroke="#000" stroke-linecap="round" stroke-linejoin="round" stroke-width="2"/>
        <path id="패스_41868" data-name="패스 41868" d="M68,51.1c7.048,1.756,11.789,11.13,5.135,16.692" transform="translate(-7.123 -5.353)" fill="none" stroke="#000" stroke-linecap="round" stroke-linejoin="round" stroke-width="2"/>
        <path id="패스_41869" data-name="패스 41869" d="M34.133,88.132c-8.862,2.363-13.659-14.594-9.4-20.3" transform="translate(-2.426 -7.105)" fill="none" stroke="#000" stroke-linecap="round" stroke-linejoin="round" stroke-width="2"/>
        <path id="패스_41870" data-name="패스 41870" d="M58.819,89.278c.355,2.851,3.315,3.571,5.969,2.984" transform="translate(-6.161 -9.352)" fill="none" stroke="#000" stroke-linecap="round" stroke-linejoin="round" stroke-width="2"/>
        <path id="패스_41874" data-name="패스 41874" d="M169.751,111.216a1.79,1.79,0,1,1,1.79,1.79,1.791,1.791,0,0,1-1.79-1.79" transform="translate(-17.781 -11.462)" fill="#131313"/>
        <path id="패스_41875" data-name="패스 41875" d="M158.584,111.216a1.79,1.79,0,1,1,1.79,1.79,1.791,1.791,0,0,1-1.79-1.79" transform="translate(-16.612 -11.462)" fill="#131313"/>
        <path id="패스_41876" data-name="패스 41876" d="M147.417,111.216a1.79,1.79,0,1,1,1.79,1.79,1.79,1.79,0,0,1-1.79-1.79" transform="translate(-15.442 -11.462)" fill="#131313"/>
        <path id="패스_41877" data-name="패스 41877" d="M169.751,97.717a1.79,1.79,0,1,1,1.79,1.79,1.791,1.791,0,0,1-1.79-1.79" transform="translate(-17.781 -10.048)" fill="#131313"/>
        <path id="패스_41878" data-name="패스 41878" d="M158.584,97.717a1.79,1.79,0,1,1,1.79,1.79,1.791,1.791,0,0,1-1.79-1.79" transform="translate(-16.612 -10.048)" fill="#131313"/>
        <path id="패스_41879" data-name="패스 41879" d="M147.417,97.717a1.79,1.79,0,1,1,1.79,1.79,1.791,1.791,0,0,1-1.79-1.79" transform="translate(-15.442 -10.048)" fill="#131313"/>
        <path id="패스_41880" data-name="패스 41880" d="M169.751,84.216a1.79,1.79,0,1,1,1.79,1.791,1.791,1.791,0,0,1-1.79-1.791" transform="translate(-17.781 -8.634)" fill="#131313"/>
        <path id="패스_41881" data-name="패스 41881" d="M158.584,84.216a1.79,1.79,0,1,1,1.79,1.791,1.791,1.791,0,0,1-1.79-1.791" transform="translate(-16.612 -8.634)" fill="#131313"/>
        <path id="패스_41882" data-name="패스 41882" d="M147.417,84.216a1.79,1.79,0,1,1,1.79,1.791,1.791,1.791,0,0,1-1.79-1.791" transform="translate(-15.442 -8.634)" fill="#131313"/>
        <g id="그룹_24344" data-name="그룹 24344" transform="translate(501.431 170)">
          <path id="패스_41888" data-name="패스 41888" d="M23,29.5l12-13Z" fill="#131313"/>
          <g id="그룹_24341" data-name="그룹 24341">
            <g id="그룹_24340" data-name="그룹 24340" clip-path="url(#clip-path-2)">
              <line id="선_81" data-name="선 81" x1="12" y2="13" transform="translate(23 16.5)" fill="none" stroke="#000" stroke-miterlimit="10" stroke-width="2"/>
            </g>
          </g>
          <path id="패스_41889" data-name="패스 41889" d="M35,29.5l-12-13Z" fill="#131313"/>
          <g id="그룹_24343" data-name="그룹 24343">
            <g id="그룹_24342" data-name="그룹 24342" clip-path="url(#clip-path-2)">
              <line id="선_82" data-name="선 82" x2="12" y2="13" transform="translate(23 16.5)" fill="none" stroke="#000" stroke-miterlimit="10" stroke-width="2"/>
              <path id="패스_41890" data-name="패스 41890" d="M10,5.5A4.5,4.5,0,1,1,5.5,1,4.5,4.5,0,0,1,10,5.5" fill="#131313"/>
              <circle id="타원_410" data-name="타원 410" cx="4.5" cy="4.5" r="4.5" transform="translate(1 1)" fill="none" stroke="#000" stroke-miterlimit="10" stroke-width="2"/>
            </g>
          </g>
        </g>
      </g>
      <g id="그룹_24349" data-name="그룹 24349" transform="translate(501.431 170)">
        <path id="패스_41891" data-name="패스 41891" d="M23,29.5l12-13Z" fill="#131313"/>
        <g id="그룹_24346" data-name="그룹 24346">
          <g id="그룹_24345" data-name="그룹 24345" clip-path="url(#clip-path-2)">
            <line id="선_83" data-name="선 83" x1="12" y2="13" transform="translate(23 16.5)" fill="none" stroke="#000" stroke-miterlimit="10" stroke-width="2"/>
          </g>
        </g>
        <path id="패스_41892" data-name="패스 41892" d="M35,29.5l-12-13Z" fill="#131313"/>
        <g id="그룹_24348" data-name="그룹 24348">
          <g id="그룹_24347" data-name="그룹 24347" clip-path="url(#clip-path-2)">
            <line id="선_84" data-name="선 84" x2="12" y2="13" transform="translate(23 16.5)" fill="none" stroke="#000" stroke-miterlimit="10" stroke-width="2"/>
            <path id="패스_41893" data-name="패스 41893" d="M10,5.5A4.5,4.5,0,1,1,5.5,1,4.5,4.5,0,0,1,10,5.5" fill="#131313"/>
            <circle id="타원_411" data-name="타원 411" cx="4.5" cy="4.5" r="4.5" transform="translate(1 1)" fill="none" stroke="#000" stroke-miterlimit="10" stroke-width="2"/>
          </g>
        </g>
      </g>
    </g>
    <g id="그룹_24354" data-name="그룹 24354" transform="translate(407 419.911)">
      <path id="패스_41894" data-name="패스 41894" d="M23,29.5l12-13Z" fill="#131313"/>
      <g id="그룹_24351" data-name="그룹 24351">
        <g id="그룹_24350" data-name="그룹 24350" clip-path="url(#clip-path-2)">
          <line id="선_85" data-name="선 85" x1="12" y2="13" transform="translate(23 16.5)" fill="none" stroke="#000" stroke-miterlimit="10" stroke-width="2"/>
        </g>
      </g>
      <path id="패스_41895" data-name="패스 41895" d="M35,29.5l-12-13Z" fill="#131313"/>
      <g id="그룹_24353" data-name="그룹 24353">
        <g id="그룹_24352" data-name="그룹 24352" clip-path="url(#clip-path-2)">
          <line id="선_86" data-name="선 86" x2="12" y2="13" transform="translate(23 16.5)" fill="none" stroke="#000" stroke-miterlimit="10" stroke-width="2"/>
          <path id="패스_41896" data-name="패스 41896" d="M10,5.5A4.5,4.5,0,1,1,5.5,1,4.5,4.5,0,0,1,10,5.5" fill="#131313"/>
          <circle id="타원_412" data-name="타원 412" cx="4.5" cy="4.5" r="4.5" transform="translate(1 1)" fill="none" stroke="#000" stroke-miterlimit="10" stroke-width="2"/>
        </g>
      </g>
    </g>
  </g>
</svg>
