<svg xmlns="http://www.w3.org/2000/svg" xmlns:xlink="http://www.w3.org/1999/xlink" width="373.536" height="312.659" viewBox="0 0 373.536 312.659">
  <defs>
    <clipPath id="clip-path">
      <rect id="사각형_19609" data-name="사각형 19609" width="373.536" height="312.659" fill="none"/>
    </clipPath>
    <clipPath id="clip-path-2">
      <rect id="사각형_19625" data-name="사각형 19625" width="18.364" height="17.478" transform="translate(0 0)" fill="none"/>
    </clipPath>
  </defs>
  <g id="그룹_24360" data-name="그룹 24360" transform="translate(-1197 -365.341)">
    <g id="마스크_그룹_24316" data-name="마스크 그룹 24316" transform="translate(1197 365.341)" clip-path="url(#clip-path)">
      <path id="패스_41453" data-name="패스 41453" d="M271.344,55.659c0,6.408-4.727,12-10.56,12H226.809c-5.832,0-10.56-5.592-10.56-12s4.728-12,10.56-12h33.975c5.833,0,10.56,5.594,10.56,12" fill="#ccc"/>
      <path id="패스_41454" data-name="패스 41454" d="M271.344,55.659c0,6.408-4.727,12-10.56,12H226.809c-5.832,0-10.56-5.592-10.56-12s4.728-12,10.56-12h33.975C266.617,43.659,271.344,49.253,271.344,55.659Z" fill="none" stroke="#000" stroke-linecap="round" stroke-linejoin="round" stroke-width="2"/>
      <path id="패스_41455" data-name="패스 41455" d="M214.954,191.853c-10.473,0-18.992-9.516-18.992-21.212l7.05-76.318c0-11.547,8.345-20.521,18.994-20.521h48.173c10.649,0,18.991,8.974,18.991,20.429l7.056,76.5c0,11.6-8.523,21.12-19,21.12Z" fill="#ccc"/>
      <path id="패스_41456" data-name="패스 41456" d="M270.179,74.8c10.089,0,17.991,8.534,17.991,19.429,0,.061,0,.122.009.184l7.044,76.316c-.043,11.1-8.1,20.122-17.991,20.122H214.954c-9.894,0-17.948-9.018-17.992-20.122l7.045-76.316c.006-.062.009-.123.009-.184,0-10.9,7.9-19.429,17.99-19.429Zm0-2H222.006c-11.041,0-19.99,9.3-19.99,21.429l-7.054,76.41c0,12.129,8.952,22.212,19.992,22.212h62.278c11.04,0,19.991-10.083,19.991-22.212l-7.053-76.41c0-12.131-8.949-21.429-19.991-21.429"/>
      <path id="패스_41457" data-name="패스 41457" d="M292.889,194.957A13.146,13.146,0,0,1,279.744,208.1H204.029a13.146,13.146,0,1,1,0-26.291h75.715a13.146,13.146,0,0,1,13.145,13.146" fill="#ccc"/>
      <path id="패스_41458" data-name="패스 41458" d="M292.889,194.957A13.146,13.146,0,0,1,279.744,208.1H204.029a13.146,13.146,0,1,1,0-26.291h75.715A13.146,13.146,0,0,1,292.889,194.957Z" fill="none" stroke="#000" stroke-linecap="round" stroke-linejoin="round" stroke-width="2"/>
      <path id="패스_41459" data-name="패스 41459" d="M236.494,271.013s-1.312,8.531.82,10.5c0,0,3.118,1.313,3.938-1.64,0,0,.984,1.312,2.133,1.149,0,0,2.134,0,2.134-3.611,0,0,.328-3.937-3.283-4.593l-.164-1.477s-3.609.82-5.578-.328" fill="#0c0c10"/>
      <path id="패스_41460" data-name="패스 41460" d="M191.949,280.529s-1.107,5.683.369,7.488c0,0,2.175,1.642,3.159-2.358h1.313s.163,3.177,1.805,2.684c0,0,1.968.769,2.461-3.5,0,0,.821-5.357-2.3-5.357,0,0-3.282,2.353-6.81,1.04" fill="#0c0c10"/>
      <path id="패스_41461" data-name="패스 41461" d="M221.4,271.342c-9.891-5.1-25.716-2.071-28.854,9.521a15.347,15.347,0,0,0-.349,1.635c-.983,6.213,6.835-2.887,6.889-2.953.247-.286.191-2.045.466-2.581,2.912-5.677,9.244-1.589,13.645-3Z" fill="#ccc"/>
      <path id="패스_41462" data-name="패스 41462" d="M221.4,271.342c-9.891-5.1-25.716-2.071-28.854,9.521a15.347,15.347,0,0,0-.349,1.635c-.983,6.213,6.835-2.887,6.889-2.953.247-.286.191-2.045.466-2.581,2.912-5.677,9.244-1.589,13.645-3Z" fill="none" stroke="#000" stroke-linecap="round" stroke-linejoin="round" stroke-width="2"/>
      <path id="패스_41463" data-name="패스 41463" d="M227.964,268.06s10.5-5.251,15.421,5.579l-10.5,1.313L227.635,272Z" fill="#ccc"/>
      <path id="패스_41464" data-name="패스 41464" d="M227.964,268.06s10.5-5.251,15.421,5.579l-10.5,1.313L227.635,272Z" fill="none" stroke="#000" stroke-linecap="round" stroke-linejoin="round" stroke-width="2"/>
      <path id="패스_41465" data-name="패스 41465" d="M221.4,261.934s4.6-2.188,7.437.439l-.656,7.438s-4.155,2.187-7.218-.438Z" fill="#0c0c10"/>
      <path id="패스_41466" data-name="패스 41466" d="M222.058,267.622s-4.158.657-4.6,3.72l.875,4.376a20.12,20.12,0,0,0,15.094-.439l-.657-3.5s0-2.844-6.124-3.719" fill="#0c0c10"/>
      <path id="패스_41467" data-name="패스 41467" d="M217.354,272.425a18.827,18.827,0,0,0-2.682.308c-2.465.387-4.909.83-7.331,1.445a54.547,54.547,0,0,0-20.177,9.415s-5.685,5.25-4.812,11.593a7.531,7.531,0,0,0,5.249-.874c2.188-1.532-1.312-4.375,7.876-9.845a65.609,65.609,0,0,1,21.864-8.747,38.847,38.847,0,0,0,3.826-.892c-1.5-1.85-2.346-2.407-3.813-2.4" fill="#ccc"/>
      <path id="패스_41468" data-name="패스 41468" d="M217.354,272.425a18.827,18.827,0,0,0-2.682.308c-2.465.387-4.909.83-7.331,1.445a54.547,54.547,0,0,0-20.177,9.415s-5.685,5.25-4.812,11.593a7.531,7.531,0,0,0,5.249-.874c2.188-1.532-1.312-4.375,7.876-9.845a65.609,65.609,0,0,1,21.864-8.747,38.847,38.847,0,0,0,3.826-.892C219.666,272.978,218.821,272.421,217.354,272.425Z" fill="none" stroke="#000" stroke-linecap="round" stroke-linejoin="round" stroke-width="2"/>
      <path id="패스_41469" data-name="패스 41469" d="M224.352,275.389s8.971,12.686,8.971,23.625c0,0,4.156,2.626,6.78-.219,0,0-1.531-17.283-10.282-24.72-.881-.748-5,.591-5.906,1.2" fill="#ccc"/>
      <path id="패스_41470" data-name="패스 41470" d="M224.352,275.389s8.971,12.686,8.971,23.625c0,0,4.156,2.626,6.78-.219,0,0-1.531-17.283-10.282-24.72-.881-.748-5,.591-5.906,1.2" fill="none" stroke="#000" stroke-linecap="round" stroke-linejoin="round" stroke-width="2"/>
      <path id="패스_41471" data-name="패스 41471" d="M232.926,274.625a9.8,9.8,0,0,0,2.677.609c3.608.464,7.2,1,10.749,1.8,6.919,1.55,17.925,4.164,20.768,11.7,0,0,5.032,1.313,6.125-.218,0,0-2.625-13.781-28.876-16.187q-3.453-.277-6.906-.553c-1.4-.112-4.1-.974-5.074.443-.882,1.275-.365,1.989.537,2.408" fill="#ccc"/>
      <path id="패스_41472" data-name="패스 41472" d="M232.926,274.625a9.8,9.8,0,0,0,2.677.609c3.608.464,7.2,1,10.749,1.8,6.919,1.55,17.925,4.164,20.768,11.7,0,0,5.032,1.313,6.125-.218,0,0-2.625-13.781-28.876-16.187q-3.453-.277-6.906-.553c-1.4-.112-4.1-.974-5.074.443C231.507,273.492,232.024,274.206,232.926,274.625Z" fill="none" stroke="#000" stroke-linecap="round" stroke-linejoin="round" stroke-width="2"/>
      <path id="패스_41473" data-name="패스 41473" d="M181.779,294.311s-1.109,5.791.368,7.594c0,0,2.173,2.754,3.158-2.246h1.312s.165,3.068,1.8,2.576c0,0,1.968.713,2.461-3.552,0,0,.821-5.385-2.3-5.385,0,0-3.282,2.325-6.808,1.013" fill="#0c0c10"/>
      <path id="패스_41474" data-name="패스 41474" d="M233.705,298.9l-.164,1.969s-1.805.493-1.805,3.938l.328,4.758a3.161,3.161,0,0,0,2.789.984l3.446-.329s1.313,1.15,1.8-1.639c0,0,1.149-7.219-.328-9.024,0,0-4.593.492-6.07-.657" fill="#0c0c10"/>
      <path id="패스_41475" data-name="패스 41475" d="M267.338,288.077s-1.312,8.53.82,10.5c0,0,3.119,1.313,3.938-1.642,0,0,.985,1.314,2.133,1.15,0,0,2.133,0,2.133-3.61,0,0,.329-3.938-3.281-4.593l-.163-1.479s-3.61.822-5.58-.326" fill="#0c0c10"/>
      <path id="패스_41476" data-name="패스 41476" d="M221.247,54.587c.29,12.959,7.069,29.3-.37,41.495,6.612-3.173,14.059-5.534,20.937-8.141" fill="#131313"/>
      <path id="패스_41477" data-name="패스 41477" d="M275.869,124.23c5.118-11.4-.667-25.67-8.635-34.773-10.359-11.83-28.058-4.38-40.666-2.359-31.562,5.062-17.773,33.447-13.622,55.324,1.8,9.5,1.419,20.816,1.178,30.517,9.722,1.285,21.485-.74,31.3-1.258,8.166-.431,16.424-.427,24.573-.842-.634.032-1.422-21.038-1.213-23.526.671-8,3.826-15.826,7.084-23.083" fill="#406eff"/>
      <path id="패스_41478" data-name="패스 41478" d="M275.869,124.23c5.118-11.4-.667-25.67-8.635-34.773-10.359-11.83-28.058-4.38-40.666-2.359-31.562,5.062-17.773,33.447-13.622,55.324,1.8,9.5,1.419,20.816,1.178,30.517,9.722,1.285,21.485-.74,31.3-1.258,8.166-.431,16.424-.427,24.573-.842-.634.032-1.422-21.038-1.213-23.526C269.456,139.313,272.611,131.487,275.869,124.23Z" fill="none" stroke="#000" stroke-linecap="round" stroke-linejoin="round" stroke-width="2"/>
      <path id="패스_41479" data-name="패스 41479" d="M238.205,156.573c-2.331,2.366-4.335,6.318-3.612,9.911,8.893.437,20.383,1.551,29.1-.553,2.14-13.783-11.767-14.482-20.926-9.709" fill="#131313"/>
      <path id="패스_41480" data-name="패스 41480" d="M266.152,147.1q3.079-.1,6.138-.422c2.012-.21,4.03-.258,6.041-.449-5.323-5.4-7.444-14.9-12.868-19.827,5.051-2.209,10.785-8.155,14.547-11.856,1.642-1.614,16.07,18.82,17.484,20.82,3.7,5.239,8.781,12.889,5.9,19.855-3.154,7.613-13.73,7.9-20.536,7.092-4.76-.564-9.091-2.858-13.983-2.8-3.988.044-7.6,2.23-11.792,1.792-1.681-.174-3.154-1.248-4.888-1a11.611,11.611,0,0,0-3.779,1.57c-2.147,1.436-.566.346-.456,1.652.4,4.738-5.861,1.146-4.912-1.4-.295.792-.353,2.868-1.588,2.68-1.55-.233-2.092-6.823-1.3-8.011-.959,1.42-.722,3.941-2.462,4.984-2.29-3.234.511-10.406,3.472-12.373,3.732-2.48,6.241-3.685,10.629-3.047a81.322,81.322,0,0,0,14.355.75" fill="#fff"/>
      <path id="패스_41481" data-name="패스 41481" d="M266.152,147.1q3.079-.1,6.138-.422c2.012-.21,4.03-.258,6.041-.449-5.323-5.4-7.444-14.9-12.868-19.827,5.051-2.209,10.785-8.155,14.547-11.856,1.642-1.614,16.07,18.82,17.484,20.82,3.7,5.239,8.781,12.889,5.9,19.855-3.154,7.613-13.73,7.9-20.536,7.092-4.76-.564-9.091-2.858-13.983-2.8-3.988.044-7.6,2.23-11.792,1.792-1.681-.174-3.154-1.248-4.888-1a11.611,11.611,0,0,0-3.779,1.57c-2.147,1.436-.566.346-.456,1.652.4,4.738-5.861,1.146-4.912-1.4-.295.792-.353,2.868-1.588,2.68-1.55-.233-2.092-6.823-1.3-8.011-.959,1.42-.722,3.941-2.462,4.984-2.29-3.234.511-10.406,3.472-12.373,3.732-2.48,6.241-3.685,10.629-3.047A81.322,81.322,0,0,0,266.152,147.1Z" fill="none" stroke="#000" stroke-linecap="round" stroke-linejoin="round" stroke-width="2"/>
      <path id="패스_41482" data-name="패스 41482" d="M243.073,162.683c.385-4.288.02-6.35,4.635-7.329" fill="none" stroke="#000" stroke-linecap="round" stroke-linejoin="round" stroke-width="2"/>
      <path id="패스_41483" data-name="패스 41483" d="M239.652,157.756c.863-3.571,3.483-5.676,7.239-6.225" fill="none" stroke="#000" stroke-linecap="round" stroke-linejoin="round" stroke-width="2"/>
      <path id="패스_41484" data-name="패스 41484" d="M250.986,83.492c10.005-.509,18.741,5.687,24.639,13.164,1.273,1.613,14.6,22.505,13.978,22.871-8.692,5.128-11.978,9.935-21.683,13.771-.269.1-9.028-12.251-9.151-14.091" fill="#406eff"/>
      <path id="패스_41485" data-name="패스 41485" d="M250.986,83.492c10.005-.509,18.741,5.687,24.639,13.164,1.273,1.613,14.6,22.505,13.978,22.871-8.692,5.128-11.978,9.935-21.683,13.771-.269.1-9.028-12.251-9.151-14.091" fill="none" stroke="#000" stroke-linecap="round" stroke-linejoin="round" stroke-width="2"/>
      <path id="패스_41486" data-name="패스 41486" d="M249.948,91.522c-4.316,6.038-13.645,4.179-14.472-2.779-.462-3.878,3.135-13.473.06-16.54l16.981.359c.08,5.8.7,14.378-2.569,18.96" fill="#fff"/>
      <path id="패스_41487" data-name="패스 41487" d="M249.948,91.522c-4.316,6.038-13.645,4.179-14.472-2.779-.462-3.878,3.135-13.473.06-16.54l16.981.359C252.6,78.358,253.221,86.94,249.948,91.522Z" fill="none" stroke="#000" stroke-linecap="round" stroke-linejoin="round" stroke-width="2"/>
      <path id="패스_41488" data-name="패스 41488" d="M238.2,81.283a17.373,17.373,0,0,1-17.01-17.749l.211-9.876a17.384,17.384,0,1,1,34.76.739l-.209,9.875a17.383,17.383,0,0,1-9.444,15.1" fill="#fff"/>
      <path id="패스_41489" data-name="패스 41489" d="M238.2,81.283a17.373,17.373,0,0,1-17.01-17.749l.211-9.876a17.384,17.384,0,1,1,34.76.739l-.209,9.875a17.383,17.383,0,0,1-9.444,15.1" fill="none" stroke="#000" stroke-linecap="round" stroke-linejoin="round" stroke-width="2"/>
      <path id="패스_41490" data-name="패스 41490" d="M252.376,79.046c-.554,4.34,2.281,4.16,5.521,4.978a31.53,31.53,0,0,1,15.483,9.625c-.374-.428-.969-4.407-1.3-5.316-.78-2.129-1.849-4.165-2.785-6.231-5.025-11.1,1.4-23.53-3.118-34.974-3.115-7.89-9.693-14.561-18.56-14.945-6.972-.3-15.292-.412-21.3,3.695-6.375,4.356-7.7,10.4-7.329,17.636,4.165-.187,8.249-.69,12.4-1.245.446-.06,1.933-6.815,2.143-7.534-.557,1.93.369,5.276.455,7.319a52.752,52.752,0,0,0,13.5-.625,12.747,12.747,0,0,1,1.491-5.325,33.219,33.219,0,0,0,.726,3.506c.222,1.592.5,3.191.723,4.791a57.124,57.124,0,0,0,1.692,9.566c-.05-3.655,1.973-4.955,3.043-7.989" fill="#131313"/>
      <path id="패스_41491" data-name="패스 41491" d="M252.236,63.9c-.949-2.049.008-6.65,2.3-7.568,1.685-.675,4.428.019,5.167,1.8,1.208,2.923-2.324,6.934-4.975,7.7" fill="#fff"/>
      <path id="패스_41492" data-name="패스 41492" d="M252.236,63.9c-.949-2.049.008-6.65,2.3-7.568,1.685-.675,4.428.019,5.167,1.8,1.208,2.923-2.324,6.934-4.975,7.7" fill="none" stroke="#000" stroke-linecap="round" stroke-linejoin="round" stroke-width="2"/>
      <path id="패스_41493" data-name="패스 41493" d="M256.436,59.935a3.3,3.3,0,0,0-1.829,2.333" fill="none" stroke="#000" stroke-linecap="round" stroke-linejoin="round" stroke-width="2"/>
      <path id="패스_41494" data-name="패스 41494" d="M229.253,61.719c-.021.982-.368,1.771-.779,1.763s-.722-.811-.7-1.793.368-1.772.778-1.762.723.812.7,1.792"/>
      <path id="패스_41495" data-name="패스 41495" d="M229.253,61.719c-.021.982-.368,1.771-.779,1.763s-.722-.811-.7-1.793.368-1.772.778-1.762S229.273,60.739,229.253,61.719Z" fill="none" stroke="#000" stroke-linecap="round" stroke-linejoin="round" stroke-width="2"/>
      <path id="패스_41496" data-name="패스 41496" d="M243.611,61.374c-.022.982-.423,1.771-.893,1.76s-.84-.814-.82-1.8.421-1.769.9-1.76.837.815.817,1.8"/>
      <path id="패스_41497" data-name="패스 41497" d="M243.611,61.374c-.022.982-.423,1.771-.893,1.76s-.84-.814-.82-1.8.421-1.769.9-1.76S243.631,60.392,243.611,61.374Z" fill="none" stroke="#000" stroke-linecap="round" stroke-linejoin="round" stroke-width="2"/>
      <path id="패스_41498" data-name="패스 41498" d="M240.078,54.727c1.035-.458,2.492-.754,3.127.416" fill="none" stroke="#000" stroke-linecap="round" stroke-linejoin="round" stroke-width="2"/>
      <path id="패스_41499" data-name="패스 41499" d="M225.625,55.907a3.243,3.243,0,0,1,2.293-1.042" fill="none" stroke="#000" stroke-linecap="round" stroke-linejoin="round" stroke-width="2"/>
      <path id="패스_41500" data-name="패스 41500" d="M234.588,59.311c.094,2.525-1.673,4.629-2.479,6.905,1.09.067,2.209.034,3.313.042" fill="none" stroke="#000" stroke-linecap="round" stroke-linejoin="round" stroke-width="2"/>
      <path id="패스_41501" data-name="패스 41501" d="M235.979,72.93c3,1.24,5.748-1.165,6.669-3.89" fill="none" stroke="#000" stroke-linecap="round" stroke-linejoin="round" stroke-width="2"/>
      <path id="패스_41502" data-name="패스 41502" d="M253.558,78.558c-1.323,4.508-.677,11.388,5.04,12.494,2.56.5,4.26-.99,6.591-1.555a5.637,5.637,0,0,1,6.366,2.889" fill="#131313"/>
      <path id="패스_41503" data-name="패스 41503" d="M275.645,146.205q4.968-.579,9.938-1.153" fill="none" stroke="#000" stroke-linecap="round" stroke-linejoin="round" stroke-width="2"/>
      <path id="패스_41504" data-name="패스 41504" d="M228.751,121.292c-.411,3.338-.1,6.776,3.336,8.339" fill="none" stroke="#000" stroke-linecap="round" stroke-linejoin="round" stroke-width="2"/>
      <path id="패스_41505" data-name="패스 41505" d="M119.287,62.964c2.492,5.794,9.4,7.995,14.256,3.1,1.378-1.387,9.44-17.645,8.8-17.96l-15.592-7.661c-2.733,5.56-9.248,13.641-8.243,19.824a11.445,11.445,0,0,0,.778,2.693" fill="#fff"/>
      <path id="패스_41506" data-name="패스 41506" d="M119.287,62.964c2.492,5.794,9.4,7.995,14.256,3.1,1.378-1.387,9.44-17.645,8.8-17.96l-15.592-7.661c-2.733,5.56-9.248,13.641-8.243,19.824A11.445,11.445,0,0,0,119.287,62.964Z" fill="none" stroke="#000" stroke-linecap="round" stroke-linejoin="round" stroke-width="2"/>
      <path id="패스_41507" data-name="패스 41507" d="M135.668,57.9A17.768,17.768,0,0,0,157,44.607l2.282-9.838a17.776,17.776,0,0,0-34.631-8.038l-2.283,9.839a17.776,17.776,0,0,0,5.549,17.346" fill="#fff"/>
      <path id="패스_41508" data-name="패스 41508" d="M135.668,57.9A17.768,17.768,0,0,0,157,44.607l2.282-9.838a17.776,17.776,0,0,0-34.631-8.038l-2.283,9.839a17.776,17.776,0,0,0,5.549,17.346" fill="none" stroke="#000" stroke-linecap="round" stroke-linejoin="round" stroke-width="2"/>
      <path id="패스_41509" data-name="패스 41509" d="M153.954,36.746c-.228.978-.081,1.847.326,1.94s.923-.621,1.151-1.6.081-1.848-.329-1.942-.921.621-1.148,1.6"/>
      <path id="패스_41510" data-name="패스 41510" d="M153.954,36.746c-.228.978-.081,1.847.326,1.94s.923-.621,1.151-1.6.081-1.848-.329-1.942S154.181,35.767,153.954,36.746Z" fill="none" stroke="#000" stroke-linecap="round" stroke-linejoin="round" stroke-width="2"/>
      <path id="패스_41511" data-name="패스 41511" d="M139.357,33.667c-.227.981-.03,1.862.441,1.97s1.037-.593,1.266-1.573.029-1.859-.445-1.969-1.035.595-1.262,1.572"/>
      <path id="패스_41512" data-name="패스 41512" d="M139.357,33.667c-.227.981-.03,1.862.441,1.97s1.037-.593,1.266-1.573.029-1.859-.445-1.969S139.584,32.69,139.357,33.667Z" fill="none" stroke="#000" stroke-linecap="round" stroke-linejoin="round" stroke-width="2"/>
      <path id="패스_41513" data-name="패스 41513" d="M157.479,32.278a4.137,4.137,0,0,0-3.2-2.3" fill="none" stroke="#000" stroke-linecap="round" stroke-linejoin="round" stroke-width="2"/>
      <path id="패스_41514" data-name="패스 41514" d="M144.716,35.03c-.705,4.064-3.47,6.977-6.178,6.507s-4.328-4.143-3.624-8.206,3.47-6.978,6.177-6.51S145.422,30.966,144.716,35.03Z" fill="none" stroke="#000" stroke-linecap="round" stroke-linejoin="round" stroke-width="2"/>
      <path id="패스_41515" data-name="패스 41515" d="M158.589,36.984c-.7,4.062-3.471,6.978-6.177,6.508s-4.331-4.144-3.626-8.208,3.471-6.978,6.178-6.508S159.295,32.92,158.589,36.984Z" fill="none" stroke="#000" stroke-linecap="round" stroke-linejoin="round" stroke-width="2"/>
      <path id="패스_41516" data-name="패스 41516" d="M137.71,28.09a17.271,17.271,0,0,1,3.6-.154" fill="none" stroke="#000" stroke-linecap="round" stroke-linejoin="round" stroke-width="2"/>
      <path id="패스_41517" data-name="패스 41517" d="M145.254,34.366a21.112,21.112,0,0,1,3.563.462" fill="none" stroke="#000" stroke-linecap="round" stroke-linejoin="round" stroke-width="2"/>
      <line id="선_61" data-name="선 61" x2="8.446" y2="2.648" transform="translate(126.468 30.682)" fill="none" stroke="#000" stroke-linecap="round" stroke-linejoin="round" stroke-width="2"/>
      <path id="패스_41518" data-name="패스 41518" d="M148.543,31.159l-.425,13.162-3.437-1.511" fill="none" stroke="#000" stroke-linecap="round" stroke-linejoin="round" stroke-width="2"/>
      <path id="패스_41519" data-name="패스 41519" d="M150.889,25.2a6.026,6.026,0,0,0,1.282-1.007c1.692,3.731,10.606,2.1,12.311-1.322.631-1.268-.784-2.412-.536-3.195.422-1.331,2.544-4.115,2.414-5.908C166,8.882,160.77,9.7,157.5,8.989c-4.38-.959-8.6-3.8-13.406-3.46-3.444.242-6.32,1.013-8.223,4.12-.106.174-5.252-.8-5.961-.779a9.355,9.355,0,0,0-6.054,2.525,16.462,16.462,0,0,0-5.543,13.187c.148,3.923,1.428,5.574,3.173,9.019-.836-1.654-.341-5.172,1.8-5.616,3.056-.633,4.432,5.379,3.791,7.445a32.118,32.118,0,0,1,4.81-9.389c2.051-2.8,4.263-5.547,6.531-8.153-1.638,1.882,6.789,10.595,12.466,7.312" fill="#131313"/>
      <path id="패스_41520" data-name="패스 41520" d="M150.889,25.2a6.026,6.026,0,0,0,1.282-1.007c1.692,3.731,10.606,2.1,12.311-1.322.631-1.268-.784-2.412-.536-3.195.422-1.331,2.544-4.115,2.414-5.908C166,8.882,160.77,9.7,157.5,8.989c-4.38-.959-8.6-3.8-13.406-3.46-3.444.242-6.32,1.013-8.223,4.12-.106.174-5.252-.8-5.961-.779a9.355,9.355,0,0,0-6.054,2.525,16.462,16.462,0,0,0-5.543,13.187c.148,3.923,1.428,5.574,3.173,9.019-.836-1.654-.341-5.172,1.8-5.616,3.056-.633,4.432,5.379,3.791,7.445a32.118,32.118,0,0,1,4.81-9.389c2.051-2.8,4.263-5.547,6.531-8.153C136.785,19.77,145.212,28.483,150.889,25.2Z" fill="none" stroke="#131313" stroke-linecap="round" stroke-linejoin="round" stroke-width="2"/>
      <path id="패스_41521" data-name="패스 41521" d="M127.354,34.973c.542-1.757.128-4.54-1.345-5.765-1.5-1.237-4.571-1.323-5.809.333-1.936,2.591.553,7.456,2.986,8.877" fill="#fff"/>
      <path id="패스_41522" data-name="패스 41522" d="M127.354,34.973c.542-1.757.128-4.54-1.345-5.765-1.5-1.237-4.571-1.323-5.809.333-1.936,2.591.553,7.456,2.986,8.877" fill="none" stroke="#000" stroke-linecap="round" stroke-linejoin="round" stroke-width="2"/>
      <path id="패스_41523" data-name="패스 41523" d="M122.771,32.457a3.036,3.036,0,0,1,1.1,2.5" fill="none" stroke="#000" stroke-linecap="round" stroke-linejoin="round" stroke-width="2"/>
      <path id="패스_41524" data-name="패스 41524" d="M110.289,282.93c-.638,8.145,5.674,12.564,10.348,17.974-7.768.531-16.2,1.193-23.73,1.171-.244-4.752-2.238-12.776-.443-16.841" fill="#fff"/>
      <path id="패스_41525" data-name="패스 41525" d="M110.289,282.93c-.638,8.145,5.674,12.564,10.348,17.974-7.768.531-16.2,1.193-23.73,1.171-.244-4.752-2.238-12.776-.443-16.841" fill="none" stroke="#000" stroke-linecap="round" stroke-linejoin="round" stroke-width="2"/>
      <path id="패스_41526" data-name="패스 41526" d="M123.979,299.7a18.965,18.965,0,0,1-4.2-2.507c-1.325-1-2.386-1.973-4.167-1.995.008.052.019.1.028.157.4,2.038,2.109,2.858,3.686,4.126-.574-.461-2.928-.263-3.625-.327q-4.346-.4-8.695-.787c-3.006-.272-9.362.365-11.657-1.788-.23.873-.162,7.907.872,8.029,3.243.382,6.5,1.037,9.723,1.62,2.635.478,3.312-.328,3.663-1.96,1.212.053,2.427.093,3.641.148l16.557.747.649-2.65c.042-.162-6.066-2.634-6.476-2.813" fill="#fff"/>
      <path id="패스_41527" data-name="패스 41527" d="M123.979,299.7a18.965,18.965,0,0,1-4.2-2.507c-1.325-1-2.386-1.973-4.167-1.995.008.052.019.1.028.157.4,2.038,2.109,2.858,3.686,4.126-.574-.461-2.928-.263-3.625-.327q-4.346-.4-8.695-.787c-3.006-.272-9.362.365-11.657-1.788-.23.873-.162,7.907.872,8.029,3.243.382,6.5,1.037,9.723,1.62,2.635.478,3.312-.328,3.663-1.96,1.212.053,2.427.093,3.641.148l16.557.747.649-2.65C130.5,302.348,124.389,299.876,123.979,299.7Z" fill="none" stroke="#000" stroke-linecap="round" stroke-linejoin="round" stroke-width="2"/>
      <path id="패스_41528" data-name="패스 41528" d="M58.683,280.35c-2.364,7.821,2.86,13.484,6.271,19.769-7.7-1.14-16.083-2.295-23.434-3.924.776-4.7.543-12.959,3.163-16.545" fill="#fff"/>
      <path id="패스_41529" data-name="패스 41529" d="M58.683,280.35c-2.364,7.821,2.86,13.484,6.271,19.769-7.7-1.14-16.083-2.295-23.434-3.924.776-4.7.543-12.959,3.163-16.545" fill="none" stroke="#000" stroke-linecap="round" stroke-linejoin="round" stroke-width="2"/>
      <path id="패스_41530" data-name="패스 41530" d="M68.476,299.653a18.893,18.893,0,0,1-3.565-3.347c-1.083-1.257-1.91-2.438-3.645-2.837,0,.053-.006.1-.008.159-.041,2.077,1.45,3.243,2.721,4.819-.462-.573-2.805-.884-3.472-1.1l-8.327-2.625c-2.878-.906-9.225-1.642-11.006-4.235-.411.8-1.847,7.69-.862,8.029,3.087,1.067,6.129,2.4,9.15,3.661,2.474,1.029,3.309.385,4-1.134,1.173.311,2.351.608,3.527.922L73,306.233l1.2-2.447c.073-.151-5.365-3.872-5.727-4.133" fill="#fff"/>
      <path id="패스_41531" data-name="패스 41531" d="M68.476,299.653a18.893,18.893,0,0,1-3.565-3.347c-1.083-1.257-1.91-2.438-3.645-2.837,0,.053-.006.1-.008.159-.041,2.077,1.45,3.243,2.721,4.819-.462-.573-2.805-.884-3.472-1.1l-8.327-2.625c-2.878-.906-9.225-1.642-11.006-4.235-.411.8-1.847,7.69-.862,8.029,3.087,1.067,6.129,2.4,9.15,3.661,2.474,1.029,3.309.385,4-1.134,1.173.311,2.351.608,3.527.922L73,306.233l1.2-2.447C74.276,303.635,68.838,299.914,68.476,299.653Z" fill="none" stroke="#000" stroke-linecap="round" stroke-linejoin="round" stroke-width="2"/>
      <path id="패스_41532" data-name="패스 41532" d="M111.255,123.838l3.528,166.613-21.823,1.8Q88.481,259.486,84,226.727c-2.227-16.3-3.886-33.013-7.638-48.794-3.381-14.211-10.37-27.005-8.281-42.829,1.463-11.093,7.988-17.086,17.932-18.044,4.161-.4,24.981.424,25.24,6.778" fill="#131313"/>
      <path id="패스_41533" data-name="패스 41533" d="M105.664,138.767C93.133,163.4,87.585,191.4,81.477,218.274c-5.621,24.739-13.195,46.222-19.934,71.141l-21.994-2.652S52.387,180.8,52.389,180.795c1.214-10.041-3.613-20.922-.543-30.651,3.832-12.144,8.946-22.835,21.215-25.8,10.18-2.459,20.437-12.139,32.109-6.829,10.733,4.886,4.856,12.886,1.109,20.061-.208.395-.412.794-.615,1.191" fill="#131313"/>
      <path id="패스_41534" data-name="패스 41534" d="M240.8,265.646a9.306,9.306,0,0,0-5.057,1.544c-7.657,5.418-2.3,19.408.2,26.173,1.468,3.969,7.967,12.95,13.4,11.4,5.3-1.511,5.1-9.79,4.534-14.011-.98-7.307-2.477-17.015-7.387-22.777a7.15,7.15,0,0,0-5.694-2.329" fill="#131313"/>
      <path id="패스_41535" data-name="패스 41535" d="M243.6,194.928c4.475.993,8.207,4.238,9,10.132,2.535,18.863-8.839,37.866-6.3,57.306.856,6.55,5.551,23.173,1.16,28.784-5.353,6.839-11.179-7.173-12.3-11.968-2.506-10.675-2.612-21.727-5.549-32.445-3.314-12.094-8.068-30.084-3.775-42.334,2.576-7.356,11.014-10.975,17.764-9.475" fill="#fff"/>
      <path id="패스_41536" data-name="패스 41536" d="M243.6,194.928c4.475.993,8.207,4.238,9,10.132,2.535,18.863-8.839,37.866-6.3,57.306.856,6.55,5.551,23.173,1.16,28.784-5.353,6.839-11.179-7.173-12.3-11.968-2.506-10.675-2.612-21.727-5.549-32.445-3.314-12.094-8.068-30.084-3.775-42.334C228.412,197.047,236.85,193.428,243.6,194.928Z" fill="none" stroke="#000" stroke-linecap="round" stroke-linejoin="round" stroke-width="2"/>
      <path id="패스_41537" data-name="패스 41537" d="M214.585,259.166a13.024,13.024,0,0,1,4.093,4.287c6.344,11.055-4.411,22.993-12.852,29.779-11.2,9-13.349-4.338-10.574-11.642,2.646-6.965,6.572-19.5,13.749-23.247,1.693-.883,3.74-.358,5.584.823" fill="#131313"/>
      <path id="패스_41538" data-name="패스 41538" d="M225.352,193.812c-8.278,15.275-11.719,49.313-16.007,59.54-2.114,5.04-13.533,27.087-4.864,30.827,8.946,3.858,20.867-31.409,24.254-36.809,5.444-8.678,25.13-55.487,7.727-60.766-4.509-1.37-8.126,1.7-11.11,7.208" fill="#fff"/>
      <path id="패스_41539" data-name="패스 41539" d="M225.352,193.812c-8.278,15.275-11.719,49.313-16.007,59.54-2.114,5.04-13.533,27.087-4.864,30.827,8.946,3.858,20.867-31.409,24.254-36.809,5.444-8.678,25.13-55.487,7.727-60.766C231.953,185.234,228.336,188.3,225.352,193.812Z" fill="none" stroke="#000" stroke-linecap="round" stroke-linejoin="round" stroke-width="2"/>
      <path id="패스_41540" data-name="패스 41540" d="M241.092,175.369c0,1.234-1.153,2.29-2.907,2.29H158.3c-1.754,0-3.212-1.056-3.212-2.29v-1.838c0-1.234,1.458-1.872,3.212-1.872h79.881c1.754,0,2.907.638,2.907,1.872Z" fill="#9b9b9b"/>
      <path id="패스_41541" data-name="패스 41541" d="M135.1,89.478a25.37,25.37,0,0,0,1.136-5.965c.532-10.682-12.159-23.518-17.842-32.1.136.205-4.294,5.552-4.767,5.886-3.887,2.751-7.034,1.269-11.6,2.746a32.266,32.266,0,0,0-8.109,4.531C88.007,69,84.355,75.852,80.157,81.314c-2.668,3.47-27.467,62.9-28.75,62.437,22.1,8.053,39.272,15.653,62.237,21.507,2.005-7.824,4.565-23.76,6.454-31.523,2.4-9.884,10.309-19.9,11.825-29.944A91.335,91.335,0,0,1,135.1,89.478" fill="#406eff"/>
      <path id="패스_41542" data-name="패스 41542" d="M135.1,89.478a25.37,25.37,0,0,0,1.136-5.965c.532-10.682-12.159-23.518-17.842-32.1.136.205-4.294,5.552-4.767,5.886-3.887,2.751-7.034,1.269-11.6,2.746a32.266,32.266,0,0,0-8.109,4.531C88.007,69,84.355,75.852,80.157,81.314c-2.668,3.47-27.467,62.9-28.75,62.437,22.1,8.053,39.272,15.653,62.237,21.507,2.005-7.824,4.565-23.76,6.454-31.523,2.4-9.884,10.309-19.9,11.825-29.944A91.335,91.335,0,0,1,135.1,89.478Z" fill="none" stroke="#000" stroke-linecap="round" stroke-linejoin="round" stroke-width="2"/>
      <path id="패스_41543" data-name="패스 41543" d="M112.888,58,123.58,81.909l8.36-9.506" fill="none" stroke="#000" stroke-linecap="round" stroke-linejoin="round" stroke-width="2"/>
      <path id="패스_41544" data-name="패스 41544" d="M147.759,152.614c-2.452,9.962,17.517,5.118,15.725,13.4-8.556.208-18.212-1.142-26.662-.13.346-2.085-.211-4.276.059-6.291" fill="#fff"/>
      <path id="패스_41545" data-name="패스 41545" d="M147.759,152.614c-2.452,9.962,17.517,5.118,15.725,13.4-8.556.208-18.212-1.142-26.662-.13.346-2.085-.211-4.276.059-6.291" fill="none" stroke="#000" stroke-linecap="round" stroke-linejoin="round" stroke-width="2"/>
      <path id="패스_41546" data-name="패스 41546" d="M94.073,77.329c-10.034,19.656,15.836,48.789,25.3,64.79,4.857,8.213,11.454,14.7,16.35,22.889-.062-.106.526-.792,1.488-1.809,3.407-3.6,13.622-7.1,14.335-7.709-1.576,1.331-11.858-26.1-12.624-28.184-5.57-15.124-11.632-30.6-19.289-44.466" fill="#406eff"/>
      <path id="패스_41547" data-name="패스 41547" d="M94.073,77.329c-10.034,19.656,15.836,48.789,25.3,64.79,4.857,8.213,11.454,14.7,16.35,22.889-.062-.106.526-.792,1.488-1.809,3.407-3.6,13.622-7.1,14.335-7.709-1.576,1.331-11.858-26.1-12.624-28.184-5.57-15.124-11.632-30.6-19.289-44.466" fill="none" stroke="#000" stroke-linecap="round" stroke-linejoin="round" stroke-width="2"/>
      <path id="패스_41548" data-name="패스 41548" d="M143.211,48.959a3.5,3.5,0,0,0-.7,2.8" fill="none" stroke="#000" stroke-linecap="round" stroke-linejoin="round" stroke-width="2"/>
      <path id="패스_41549" data-name="패스 41549" d="M145.1,80.171c-2.634,1.612-5.21,3.323-7.914,4.775-2.377-7.669-11.643-12.093-11.406-20.722.021-.788-.086-1.518.855-1.561a3.886,3.886,0,0,1,1.511.79c-.017-.042-.038-.081-.052-.124l.123.186a.443.443,0,0,1,.1.128c-.592-1.473-1.328-3.729-.207-5.211a7.942,7.942,0,0,1,1.872,1.475c-.242-1.066-1.406-4.1-.142-4.892,1.745-1.1,3.307,1.757,4.574,2.443-.183-.1-1.129-3.2-1.337-3.669-.716-1.618-1.23-3.306-2.025-4.892-.394-.788-3.369-4.434-1.537-4.962,3.578-1.028,8.952,9.537,10.623,11.775,2.416,3.24,2.738,1.748,5.844.321,1.567-.717,5.041-2.148,6.706-1.018,1.539,1.046,1.286,3.523.183,4.828-1.2,1.416-1.967.223-3.317.425-12.606,1.884-.312,17.518-1.5,18.172-1,.552-1.984,1.136-2.958,1.733" fill="#fff"/>
      <path id="패스_41550" data-name="패스 41550" d="M145.1,80.171c-2.634,1.612-5.21,3.323-7.914,4.775-2.377-7.669-11.643-12.093-11.406-20.722.021-.788-.086-1.518.855-1.561a3.886,3.886,0,0,1,1.511.79c-.017-.042-.038-.081-.052-.124l.123.186a.443.443,0,0,1,.1.128c-.592-1.473-1.328-3.729-.207-5.211a7.942,7.942,0,0,1,1.872,1.475c-.242-1.066-1.406-4.1-.142-4.892,1.745-1.1,3.307,1.757,4.574,2.443-.183-.1-1.129-3.2-1.337-3.669-.716-1.618-1.23-3.306-2.025-4.892-.394-.788-3.369-4.434-1.537-4.962,3.578-1.028,8.952,9.537,10.623,11.775,2.416,3.24,2.738,1.748,5.844.321,1.567-.717,5.041-2.148,6.706-1.018,1.539,1.046,1.286,3.523.183,4.828-1.2,1.416-1.967.223-3.317.425-12.606,1.884-.312,17.518-1.5,18.172C147.06,78.99,146.076,79.574,145.1,80.171Z" fill="none" stroke="#000" stroke-linecap="round" stroke-linejoin="round" stroke-width="2"/>
      <path id="패스_41551" data-name="패스 41551" d="M153.631,125.216c7.366-4.154,6.442-13.832,4.95-20.874-1.91-9.015-5.282-18.017-8.436-26.661-.624-1.711-1.26-3.416-1.846-5.142-.186-.547-15.18,5.719-16.751,6.278.267-.1,4.99,26.727,5.745,30.258,1.184,5.539,7.193,19.124,14.642,16.865a8.4,8.4,0,0,0,1.7-.724" fill="#406eff"/>
      <path id="패스_41552" data-name="패스 41552" d="M153.631,125.216c7.366-4.154,6.442-13.832,4.95-20.874-1.91-9.015-5.282-18.017-8.436-26.661-.624-1.711-1.26-3.416-1.846-5.142-.186-.547-15.18,5.719-16.751,6.278.267-.1,4.99,26.727,5.745,30.258,1.184,5.539,7.193,19.124,14.642,16.865A8.4,8.4,0,0,0,153.631,125.216Z" fill="none" stroke="#000" stroke-linecap="round" stroke-linejoin="round" stroke-width="2"/>
      <path id="사각형_19598" data-name="사각형 19598" d="M7.652,0H98.719a7.653,7.653,0,0,1,7.653,7.653V57.141a7.654,7.654,0,0,1-7.654,7.654H7.652A7.652,7.652,0,0,1,0,57.143V7.652A7.652,7.652,0,0,1,7.652,0Z" transform="translate(148.916 88.747)" fill="#131313"/>
      <rect id="사각형_19599" data-name="사각형 19599" width="21.059" height="41.037" transform="translate(191.573 122.993)" fill="#fff"/>
      <rect id="사각형_19600" data-name="사각형 19600" width="21.059" height="41.037" transform="translate(191.573 122.993)" fill="none" stroke="#000" stroke-linecap="round" stroke-linejoin="round" stroke-width="2"/>
      <path id="패스_41553" data-name="패스 41553" d="M228.764,164.02a2.371,2.371,0,0,1-2.371,2.37H177.811a2.37,2.37,0,0,1,0-4.74h48.582a2.369,2.369,0,0,1,2.371,2.37" fill="#131313"/>
      <path id="패스_41554" data-name="패스 41554" d="M199.117,212.77q.1,1.265.265,2.558c7.273,1.2,15.6-.019,23.019.134,17.208.356,34.07,1.023,51.135-.229,2.315-.171,1.244-19.726.6-21.861C268,173.063,245.519,172.166,227.9,175.209c-19.957,3.448-30.334,17.742-28.781,37.561" fill="#131313"/>
      <rect id="사각형_19601" data-name="사각형 19601" width="7" height="133" transform="translate(325.092 176.659)" fill="#fff"/>
      <rect id="사각형_19602" data-name="사각형 19602" width="7" height="133" transform="translate(325.092 176.659)" fill="none" stroke="#000" stroke-linecap="round" stroke-linejoin="round" stroke-width="2"/>
      <rect id="사각형_19603" data-name="사각형 19603" width="5" height="134" transform="translate(112.092 177.659)" fill="#fff"/>
      <rect id="사각형_19604" data-name="사각형 19604" width="5" height="134" transform="translate(112.092 177.659)" fill="none" stroke="#000" stroke-linecap="round" stroke-linejoin="round" stroke-width="2"/>
      <rect id="사각형_19605" data-name="사각형 19605" width="224" height="15" transform="translate(110.092 171.659)" fill="#fff"/>
      <rect id="사각형_19606" data-name="사각형 19606" width="224" height="15" transform="translate(110.092 171.659)" fill="none" stroke="#000" stroke-linecap="round" stroke-linejoin="round" stroke-width="2"/>
      <rect id="사각형_19607" data-name="사각형 19607" width="258" height="10" transform="translate(93.092 165.659)" fill="#fff"/>
      <rect id="사각형_19608" data-name="사각형 19608" width="258" height="10" transform="translate(93.092 165.659)" fill="none" stroke="#000" stroke-linecap="round" stroke-linejoin="round" stroke-width="2"/>
      <path id="패스_41555" data-name="패스 41555" d="M309.413,55.012a2,2,0,1,1-2-2,2,2,0,0,1,2,2" fill="#131313"/>
      <path id="패스_41556" data-name="패스 41556" d="M320.58,55.012a2,2,0,1,1-2-2,2,2,0,0,1,2,2" fill="#131313"/>
      <path id="패스_41557" data-name="패스 41557" d="M331.747,55.012a2,2,0,1,1-2-2,2,2,0,0,1,2,2" fill="#131313"/>
      <path id="패스_41558" data-name="패스 41558" d="M309.413,68.621a2,2,0,1,1-2-2,2,2,0,0,1,2,2" fill="#131313"/>
      <path id="패스_41559" data-name="패스 41559" d="M320.58,68.621a2,2,0,1,1-2-2,2,2,0,0,1,2,2" fill="#131313"/>
      <path id="패스_41560" data-name="패스 41560" d="M331.747,68.621a2,2,0,1,1-2-2,2,2,0,0,1,2,2" fill="#131313"/>
      <path id="패스_41561" data-name="패스 41561" d="M342.984,55.012a2,2,0,1,1-2-2,2,2,0,0,1,2,2" fill="#131313"/>
      <path id="패스_41562" data-name="패스 41562" d="M342.984,68.621a2,2,0,1,1-2-2,2,2,0,0,1,2,2" fill="#131313"/>
      <line id="선_62" data-name="선 62" x1="12" y2="13" transform="translate(23 131.118)" fill="#131313"/>
      <line id="선_63" data-name="선 63" x1="12" y2="13" transform="translate(23 131.118)" fill="none" stroke="#000" stroke-miterlimit="10" stroke-width="2"/>
      <line id="선_64" data-name="선 64" x2="12" y2="13" transform="translate(23 131.118)" fill="#131313"/>
      <line id="선_65" data-name="선 65" x2="12" y2="13" transform="translate(23 131.118)" fill="none" stroke="#000" stroke-miterlimit="10" stroke-width="2"/>
      <path id="패스_41567" data-name="패스 41567" d="M10,120.118a4.5,4.5,0,1,1-4.5-4.5,4.5,4.5,0,0,1,4.5,4.5" fill="#131313"/>
      <circle id="타원_409" data-name="타원 409" cx="4.5" cy="4.5" r="4.5" transform="translate(1 115.618)" fill="none" stroke="#000" stroke-miterlimit="10" stroke-width="2"/>
    </g>
    <g id="그룹_24324" data-name="그룹 24324" transform="translate(1398.637 377.863)" clip-path="url(#clip-path-2)">
      <path id="패스_41746" data-name="패스 41746" d="M5.956,3.026a2.5,2.5,0,1,1-2.929-1.98,2.5,2.5,0,0,1,2.929,1.98" fill="#fff"/>
      <path id="패스_41747" data-name="패스 41747" d="M5.956,3.026a2.5,2.5,0,1,1-2.929-1.98A2.5,2.5,0,0,1,5.956,3.026Z" fill="none" stroke="#000" stroke-linecap="round" stroke-linejoin="round" stroke-width="2"/>
      <path id="패스_41748" data-name="패스 41748" d="M17.282,11.124a4.5,4.5,0,1,1-5.271-3.566,4.5,4.5,0,0,1,5.271,3.566" fill="#131313"/>
      <path id="패스_41749" data-name="패스 41749" d="M17.282,11.124a4.5,4.5,0,1,1-5.271-3.566A4.5,4.5,0,0,1,17.282,11.124Z" fill="none" stroke="#000" stroke-miterlimit="10" stroke-width="2"/>
    </g>
  </g>
</svg>
