<svg xmlns="http://www.w3.org/2000/svg" width="40" height="40" viewBox="0 0 40 40">
  <g id="m_icon_book" transform="translate(-892 -518)">
    <rect id="사각형_20249" data-name="사각형 20249" width="40" height="40" transform="translate(892 518)" fill="none"/>
    <g id="그룹_24861" data-name="그룹 24861" transform="translate(795.16 -327.861)">
      <path id="패스_41899" data-name="패스 41899" d="M139.5,895.158a.881.881,0,0,0-.539-.18.867.867,0,0,0-.633.265l-4.415,4.709-2.75-2.713a.891.891,0,0,0-1.174-.043.71.71,0,0,0-.048,1.068l3.385,3.34a.874.874,0,0,0,.611.244h.016a.866.866,0,0,0,.617-.265l5.024-5.358A.71.71,0,0,0,139.5,895.158Z" transform="translate(-17.522 -32.014)" fill="#fff"/>
      <path id="패스_41900" data-name="패스 41900" d="M124.538,879.184H109.991a1.611,1.611,0,0,1-1.608-1.61V858.938a1.611,1.611,0,0,1,1.608-1.61h3.956a.755.755,0,0,1,0,1.511h-3.956a.1.1,0,0,0-.1.1v18.636a.1.1,0,0,0,.1.1h14.546a.1.1,0,0,0,.1-.1V858.938a.1.1,0,0,0-.1-.1H120.58a.755.755,0,0,1,0-1.511h3.958a1.611,1.611,0,0,1,1.608,1.61v18.636A1.611,1.611,0,0,1,124.538,879.184Z" transform="translate(0 -1.674)" fill="#fff"/>
      <path id="패스_41901" data-name="패스 41901" d="M125.806,955.655H109.544a.627.627,0,1,1,0-1.253h16.262a.627.627,0,1,1,0,1.253Z" transform="translate(-0.411 -80.23)" fill="#fff"/>
      <path id="패스_41902" data-name="패스 41902" d="M140.55,859.157h-5.619a1.053,1.053,0,0,1-1.051-1.051V856.34a1.053,1.053,0,0,1,1.051-1.051h5.619a1.053,1.053,0,0,1,1.051,1.051v1.766A1.052,1.052,0,0,1,140.55,859.157Zm-5.238-1.432h4.858v-1h-4.858Z" transform="translate(-20.476)" fill="#fff"/>
    </g>
  </g>
</svg>
