<svg xmlns="http://www.w3.org/2000/svg" width="44.457" height="25" viewBox="0 0 44.457 25">
  <g id="M_image_Logo" transform="translate(-266.499 183.387)">
    <g id="그룹_1653" data-name="그룹 1653" transform="translate(267 -181.359)">
      <g id="그룹_24304" data-name="그룹 24304" transform="translate(0 0)">
        <g id="그룹_24753" data-name="그룹 24753" transform="translate(0)">
          <path id="합치기_15" data-name="합치기 15" d="M8,20.763c-3.972-.3-8.168-2.812-8-7.6a6.219,6.219,0,0,1,.783-2.852,8.24,8.24,0,0,1,6.9-3.976,8.639,8.639,0,0,1,2.5.081,6.957,6.957,0,0,1,.6-3.246,5.619,5.619,0,0,1,3.391-2.8,6.206,6.206,0,0,1,4.752.315A6.135,6.135,0,0,1,20.6,2.048a1.252,1.252,0,0,1-.138,1.774,1.279,1.279,0,0,1-1.79-.135,3.617,3.617,0,0,0-.956-.788,3.659,3.659,0,0,0-2.756-.135A3.1,3.1,0,0,0,13.073,4.25a5.954,5.954,0,0,0-.131,3.695,1.254,1.254,0,0,1-.46,1.28,1.281,1.281,0,0,1-1.365.118,5.742,5.742,0,0,0-3.125-.513,1.342,1.342,0,0,1-.176.015A5.747,5.747,0,0,0,3,11.536a3.729,3.729,0,0,0-.461,1.715c-.114,3.149,2.758,4.782,5.654,5,2.864.213,5.974-.8,9.25-3.024a73.31,73.31,0,0,0,6.1-4.871c1.252-1.073,2.548-2.182,3.782-3.15a9.134,9.134,0,0,1,2.035-1.193,1.272,1.272,0,0,1,1.665.665,1.253,1.253,0,0,1-.669,1.65,6.652,6.652,0,0,0-1.454.849c-1.192.937-2.411,1.978-3.7,3.083a75.237,75.237,0,0,1-6.324,5.044A17.791,17.791,0,0,1,8.968,20.8C8.643,20.8,8.321,20.789,8,20.763ZM31.133,20.7a21.838,21.838,0,0,1-6.521-1.5,1.253,1.253,0,0,1-.687-1.643,1.272,1.272,0,0,1,1.659-.681,19.383,19.383,0,0,0,5.769,1.314,10.347,10.347,0,0,0,4.1-.279,8.926,8.926,0,0,0,4.429-2.807c1.291-1.574,1.506-4.454-.146-5.809a5.557,5.557,0,0,0-2.99-1.165c-.192-.007-.554-.028-.767-.021a1.283,1.283,0,0,1-.642-.018,1.257,1.257,0,0,1-.861-1.561v0a3.283,3.283,0,0,0-1.091-3.4,5.218,5.218,0,0,0-3.772-.463C27.682,3.087,26.179,4.5,24.589,6c-.518.487-1.033.969-1.559,1.418a78.514,78.514,0,0,1-8.039,6.018A8.853,8.853,0,0,1,9.2,15.191a1.259,1.259,0,1,1,.29-2.5c1.2.139,2.428-.269,4.1-1.36a75.888,75.888,0,0,0,7.78-5.823c.5-.422.979-.878,1.466-1.334C24.531,2.582,26.447.78,29.068.21A7.681,7.681,0,0,1,34.744,1,5.591,5.591,0,0,1,37.131,5.64a8.251,8.251,0,0,1,4.22,1.72c2.875,2.355,2.572,6.809.5,9.334a11.4,11.4,0,0,1-5.731,3.649,11.784,11.784,0,0,1-3.229.446C32.335,20.789,31.763,20.754,31.133,20.7Z" transform="translate(0 0)" fill="#fff" stroke="rgba(0,0,0,0)" stroke-width="1"/>
        </g>
      </g>
    </g>
    <rect id="사각형_2959" data-name="사각형 2959" width="43.457" height="25" transform="translate(267 -183.387)" fill="none"/>
  </g>
</svg>
