<svg xmlns="http://www.w3.org/2000/svg" xmlns:xlink="http://www.w3.org/1999/xlink" width="1480" height="890" viewBox="0 0 1480 890">
  <defs>
    <style>
      .cls-1, .cls-2, .cls-3 {
        fill: #e0e6f1;
      }

      .cls-1, .cls-3 {
        stroke: #e0e6f1;
      }

      .cls-1 {
        stroke-width: 2px;
      }

      .cls-4, .cls-7 {
        fill: #c7d0e2;
        font-size: 18px;
        letter-spacing: -0.025em;
      }

      .cls-4, .cls-9 {
        font-family: NotoSansCJKkr-Regular, Noto Sans CJK KR;
      }

      .cls-5 {
        clip-path: url(#clip-path);
      }

      .cls-6 {
        clip-path: url(#clip-path-4);
      }

      .cls-7 {
        font-family: Roboto-Regular, Roboto;
      }

      .cls-8 {
        font-family: MalgunGothic, Malgun Gothic;
      }
    </style>
    <clipPath id="clip-path">
      <rect id="사각형_20048" data-name="사각형 20048" class="cls-1" width="140" height="104"/>
    </clipPath>
    <clipPath id="clip-path-4">
      <rect id="사각형_20049" data-name="사각형 20049" class="cls-1" width="113.747" height="66.288" transform="translate(-8 -5)"/>
    </clipPath>
  </defs>
  <g id="img_seoksoo_3F" transform="translate(-390 -260)">
    <rect id="사각형_19890" data-name="사각형 19890" class="cls-2" width="739" height="10" transform="translate(1130 260)"/>
    <rect id="사각형_20212" data-name="사각형 20212" class="cls-2" width="370" height="10" transform="translate(1500 390)"/>
    <rect id="사각형_20217" data-name="사각형 20217" class="cls-2" width="370" height="10" transform="translate(1130 390)"/>
    <rect id="사각형_20222" data-name="사각형 20222" class="cls-2" width="390" height="10" transform="translate(390 470)"/>
    <rect id="사각형_20220" data-name="사각형 20220" class="cls-2" width="370" height="10" transform="translate(770 325)"/>
    <rect id="사각형_20213" data-name="사각형 20213" class="cls-2" width="260" height="10" transform="translate(1200 520)"/>
    <rect id="사각형_20237" data-name="사각형 20237" class="cls-2" width="30" height="10" transform="translate(1130 520)"/>
    <rect id="사각형_20223" data-name="사각형 20223" class="cls-2" width="320" height="10" transform="translate(770 520)"/>
    <rect id="사각형_20224" data-name="사각형 20224" class="cls-2" width="390" height="10" transform="translate(390 595)"/>
    <rect id="사각형_20232" data-name="사각형 20232" class="cls-2" width="171" height="10" transform="translate(390 777)"/>
    <rect id="사각형_20233" data-name="사각형 20233" class="cls-2" width="171" height="10" transform="translate(390 958)"/>
    <rect id="사각형_20214" data-name="사각형 20214" class="cls-2" width="200" height="10" transform="translate(1500 590)"/>
    <rect id="사각형_20228" data-name="사각형 20228" class="cls-2" width="175" height="10" transform="translate(1695 732)"/>
    <rect id="사각형_20231" data-name="사각형 20231" class="cls-2" width="175" height="10" transform="translate(1695 936)"/>
    <rect id="사각형_20229" data-name="사각형 20229" class="cls-2" width="130" height="10" transform="translate(1510 732)"/>
    <rect id="사각형_20230" data-name="사각형 20230" class="cls-2" width="130" height="10" transform="translate(1510 912)"/>
    <rect id="사각형_20004" data-name="사각형 20004" class="cls-2" width="1480" height="10" transform="translate(390 1140)"/>
    <rect id="사각형_19892" data-name="사각형 19892" class="cls-2" width="890" height="10" transform="translate(1870 260) rotate(90)"/>
    <rect id="사각형_19893" data-name="사각형 19893" class="cls-2" width="680" height="10" transform="translate(400 470) rotate(90)"/>
    <rect id="사각형_20216" data-name="사각형 20216" class="cls-2" width="179" height="10" transform="translate(1510 260) rotate(90)"/>
    <rect id="사각형_20241" data-name="사각형 20241" class="cls-2" width="73" height="10" transform="translate(1510 527) rotate(90)"/>
    <rect id="사각형_20242" data-name="사각형 20242" class="cls-2" width="142" height="10" transform="translate(1700 590) rotate(90)"/>
    <rect id="사각형_20239" data-name="사각형 20239" class="cls-2" width="90" height="10" transform="translate(1760 310) rotate(90)"/>
    <rect id="사각형_20240" data-name="사각형 20240" class="cls-2" width="90" height="10" transform="translate(1620 310) rotate(90)"/>
    <rect id="사각형_20225" data-name="사각형 20225" class="cls-2" width="418" height="10" transform="translate(1510 732) rotate(90)"/>
    <rect id="사각형_20226" data-name="사각형 20226" class="cls-2" width="418" height="10" transform="translate(1640 732) rotate(90)"/>
    <rect id="사각형_20227" data-name="사각형 20227" class="cls-2" width="418" height="10" transform="translate(1700 732) rotate(90)"/>
    <rect id="사각형_20219" data-name="사각형 20219" class="cls-2" width="140" height="10" transform="translate(1460 390) rotate(90)"/>
    <rect id="사각형_20218" data-name="사각형 20218" class="cls-2" width="270" height="10" transform="translate(1140 260) rotate(90)"/>
    <rect id="사각형_20221" data-name="사각형 20221" class="cls-2" width="230" height="10" transform="translate(780 325) rotate(90)"/>
    <rect id="사각형_20234" data-name="사각형 20234" class="cls-2" width="142" height="10" transform="translate(561 644) rotate(90)"/>
    <rect id="사각형_20235" data-name="사각형 20235" class="cls-2" width="142" height="10" transform="translate(561 826) rotate(90)"/>
    <rect id="사각형_20236" data-name="사각형 20236" class="cls-2" width="142" height="10" transform="translate(561 1008) rotate(90)"/>
    <g id="그룹_24385" data-name="그룹 24385" transform="translate(863.955 1269.57) rotate(-90)">
      <g id="그룹_24384" data-name="그룹 24384" transform="translate(760.57 636.045)">
        <path id="패스_1" data-name="패스 1" class="cls-3" d="M23.213,0,20.24,2.973,0,23.212H5.7L23.213,5.946,40.479,23.212h5.948L26.186,2.973Z" transform="translate(0 0)"/>
        <path id="패스_2" data-name="패스 2" class="cls-3" d="M0,142.969H5.7L23.213,125.7l17.266,17.266h5.948L26.186,122.73l-2.973-2.973Z" transform="translate(0 -104.504)"/>
        <path id="패스_3" data-name="패스 3" class="cls-3" d="M0,262.811H5.7l17.511-17.266,17.266,17.266h5.948L26.186,242.572,23.213,239.6Z" transform="translate(0 -209.082)"/>
      </g>
      <text id="출입구" class="cls-4" transform="translate(783.57 720)"><tspan x="-24.39" y="0">출입구</tspan></text>
    </g>
    <g id="dask" transform="translate(630 732)">
      <rect id="사각형_20022" data-name="사각형 20022" class="cls-2" width="130" height="6" transform="translate(0 72)"/>
      <rect id="사각형_20024" data-name="사각형 20024" class="cls-2" width="50" height="72"/>
    </g>
    <g id="dask-2" data-name="dask" transform="translate(400 679)">
      <rect id="사각형_20022-2" data-name="사각형 20022" class="cls-2" width="130" height="6" transform="translate(0 72)"/>
      <rect id="사각형_20024-2" data-name="사각형 20024" class="cls-2" width="50" height="72"/>
    </g>
    <g id="dask-3" data-name="dask" transform="translate(400 860)">
      <rect id="사각형_20022-3" data-name="사각형 20022" class="cls-2" width="130" height="6" transform="translate(0 72)"/>
      <rect id="사각형_20024-3" data-name="사각형 20024" class="cls-2" width="50" height="72"/>
    </g>
    <g id="dask-4" data-name="dask" transform="translate(400 1042)">
      <rect id="사각형_20022-4" data-name="사각형 20022" class="cls-2" width="130" height="6" transform="translate(0 72)"/>
      <rect id="사각형_20024-4" data-name="사각형 20024" class="cls-2" width="50" height="72"/>
    </g>
    <g id="dask-5" data-name="dask" transform="translate(790 732)">
      <rect id="사각형_20022-5" data-name="사각형 20022" class="cls-2" width="130" height="6" transform="translate(0 72)"/>
      <rect id="사각형_20024-5" data-name="사각형 20024" class="cls-2" width="50" height="72" transform="translate(80)"/>
    </g>
    <g id="dask-6" data-name="dask" transform="translate(920 732)">
      <rect id="사각형_20022-6" data-name="사각형 20022" class="cls-2" width="130" height="6" transform="translate(0 72)"/>
      <rect id="사각형_20024-6" data-name="사각형 20024" class="cls-2" width="50" height="72"/>
    </g>
    <g id="dask-7" data-name="dask" transform="translate(1080 732)">
      <rect id="사각형_20022-7" data-name="사각형 20022" class="cls-2" width="130" height="6" transform="translate(0 72)"/>
      <rect id="사각형_20024-7" data-name="사각형 20024" class="cls-2" width="50" height="72" transform="translate(80)"/>
    </g>
    <g id="dask-8" data-name="dask" transform="translate(1210 732)">
      <rect id="사각형_20022-8" data-name="사각형 20022" class="cls-2" width="130" height="6" transform="translate(0 72)"/>
      <rect id="사각형_20024-8" data-name="사각형 20024" class="cls-2" width="50" height="72"/>
    </g>
    <g id="dask-9" data-name="dask" transform="translate(1370 732)">
      <rect id="사각형_20022-9" data-name="사각형 20022" class="cls-2" width="130" height="6" transform="translate(0 72)"/>
      <rect id="사각형_20024-9" data-name="사각형 20024" class="cls-2" width="50" height="72" transform="translate(80)"/>
    </g>
    <g id="dask-10" data-name="dask" transform="translate(630 810)">
      <rect id="사각형_20022-10" data-name="사각형 20022" class="cls-2" width="130" height="6" transform="translate(0 72)"/>
      <rect id="사각형_20024-10" data-name="사각형 20024" class="cls-2" width="50" height="72"/>
    </g>
    <g id="dask-11" data-name="dask" transform="translate(790 810)">
      <rect id="사각형_20022-11" data-name="사각형 20022" class="cls-2" width="130" height="6" transform="translate(0 72)"/>
      <rect id="사각형_20024-11" data-name="사각형 20024" class="cls-2" width="50" height="72" transform="translate(80)"/>
    </g>
    <g id="dask-12" data-name="dask" transform="translate(920 810)">
      <rect id="사각형_20022-12" data-name="사각형 20022" class="cls-2" width="130" height="6" transform="translate(0 72)"/>
      <rect id="사각형_20024-12" data-name="사각형 20024" class="cls-2" width="50" height="72"/>
    </g>
    <g id="dask-13" data-name="dask" transform="translate(1080 810)">
      <rect id="사각형_20022-13" data-name="사각형 20022" class="cls-2" width="130" height="6" transform="translate(0 72)"/>
      <rect id="사각형_20024-13" data-name="사각형 20024" class="cls-2" width="50" height="72" transform="translate(80)"/>
    </g>
    <g id="dask-14" data-name="dask" transform="translate(1210 810)">
      <rect id="사각형_20022-14" data-name="사각형 20022" class="cls-2" width="130" height="6" transform="translate(0 72)"/>
      <rect id="사각형_20024-14" data-name="사각형 20024" class="cls-2" width="50" height="72"/>
    </g>
    <g id="dask-15" data-name="dask" transform="translate(1370 810)">
      <rect id="사각형_20022-15" data-name="사각형 20022" class="cls-2" width="130" height="6" transform="translate(0 72)"/>
      <rect id="사각형_20024-15" data-name="사각형 20024" class="cls-2" width="50" height="72" transform="translate(80)"/>
    </g>
    <g id="dask-16" data-name="dask" transform="translate(630 888)">
      <rect id="사각형_20022-16" data-name="사각형 20022" class="cls-2" width="130" height="6" transform="translate(0 72)"/>
      <rect id="사각형_20024-16" data-name="사각형 20024" class="cls-2" width="50" height="72"/>
    </g>
    <g id="dask-17" data-name="dask" transform="translate(790 888)">
      <rect id="사각형_20022-17" data-name="사각형 20022" class="cls-2" width="130" height="6" transform="translate(0 72)"/>
      <rect id="사각형_20024-17" data-name="사각형 20024" class="cls-2" width="50" height="72" transform="translate(80)"/>
    </g>
    <g id="dask-18" data-name="dask" transform="translate(920 888)">
      <rect id="사각형_20022-18" data-name="사각형 20022" class="cls-2" width="130" height="6" transform="translate(0 72)"/>
      <rect id="사각형_20024-18" data-name="사각형 20024" class="cls-2" width="50" height="72"/>
    </g>
    <g id="dask-19" data-name="dask" transform="translate(1080 888)">
      <rect id="사각형_20022-19" data-name="사각형 20022" class="cls-2" width="130" height="6" transform="translate(0 72)"/>
      <rect id="사각형_20024-19" data-name="사각형 20024" class="cls-2" width="50" height="72" transform="translate(80)"/>
    </g>
    <g id="dask-20" data-name="dask" transform="translate(1210 888)">
      <rect id="사각형_20022-20" data-name="사각형 20022" class="cls-2" width="130" height="6" transform="translate(0 72)"/>
      <rect id="사각형_20024-20" data-name="사각형 20024" class="cls-2" width="50" height="72"/>
    </g>
    <g id="dask-21" data-name="dask" transform="translate(1370 888)">
      <rect id="사각형_20022-21" data-name="사각형 20022" class="cls-2" width="130" height="6" transform="translate(0 72)"/>
      <rect id="사각형_20024-21" data-name="사각형 20024" class="cls-2" width="50" height="72" transform="translate(80)"/>
    </g>
    <g id="dask-22" data-name="dask" transform="translate(630 966)">
      <rect id="사각형_20022-22" data-name="사각형 20022" class="cls-2" width="130" height="6" transform="translate(0 72)"/>
      <rect id="사각형_20024-22" data-name="사각형 20024" class="cls-2" width="50" height="72"/>
    </g>
    <g id="dask-23" data-name="dask" transform="translate(790 966)">
      <rect id="사각형_20022-23" data-name="사각형 20022" class="cls-2" width="130" height="6" transform="translate(0 72)"/>
      <rect id="사각형_20024-23" data-name="사각형 20024" class="cls-2" width="50" height="72" transform="translate(80)"/>
    </g>
    <g id="dask-24" data-name="dask" transform="translate(920 966)">
      <rect id="사각형_20022-24" data-name="사각형 20022" class="cls-2" width="130" height="6" transform="translate(0 72)"/>
      <rect id="사각형_20024-24" data-name="사각형 20024" class="cls-2" width="50" height="72"/>
    </g>
    <g id="dask-25" data-name="dask" transform="translate(1080 966)">
      <rect id="사각형_20022-25" data-name="사각형 20022" class="cls-2" width="130" height="6" transform="translate(0 72)"/>
      <rect id="사각형_20024-25" data-name="사각형 20024" class="cls-2" width="50" height="72" transform="translate(80)"/>
    </g>
    <g id="dask-26" data-name="dask" transform="translate(1210 966)">
      <rect id="사각형_20022-26" data-name="사각형 20022" class="cls-2" width="130" height="6" transform="translate(0 72)"/>
      <rect id="사각형_20024-26" data-name="사각형 20024" class="cls-2" width="50" height="72"/>
    </g>
    <g id="dask-27" data-name="dask" transform="translate(1370 966)">
      <rect id="사각형_20022-27" data-name="사각형 20022" class="cls-2" width="130" height="6" transform="translate(0 72)"/>
      <rect id="사각형_20024-27" data-name="사각형 20024" class="cls-2" width="50" height="72" transform="translate(80)"/>
    </g>
    <g id="그룹_24742" data-name="그룹 24742" transform="translate(1290 378) rotate(-180)">
      <g id="그룹_24735" data-name="그룹 24735" class="cls-5" transform="translate(-10 -4)">
        <path id="패스_41532" data-name="패스 41532" class="cls-1" d="M99.156,24.831H20.73A20.738,20.738,0,0,0,0,45.532v4.694a20.738,20.738,0,0,0,20.73,20.7H99.156a20.739,20.739,0,0,0,20.731-20.7V45.532a20.739,20.739,0,0,0-20.731-20.7m20.228,25.394a20.236,20.236,0,0,1-20.228,20.2H20.73A20.236,20.236,0,0,1,.5,50.225V45.532a20.236,20.236,0,0,1,20.227-20.2H99.156a20.236,20.236,0,0,1,20.228,20.2Z" transform="translate(10.057 4.121)"/>
        <path id="패스_41533" data-name="패스 41533" class="cls-1" d="M19.632,18.352l.376.014h.044a1.157,1.157,0,0,0,.643-.215l-.025.664a3.365,3.365,0,0,0,3.366,3.492H34.351a3.367,3.367,0,0,0,3.366-3.492l-.026-.669a1.154,1.154,0,0,0,.651.22h.044l.377-.014a1.179,1.179,0,0,0,1.135-1.22l-.4-10.8a1.179,1.179,0,0,0-1.179-1.133h-.043l-.377.014a1.158,1.158,0,0,0-.693.283L37.2,5.3l.006-.011.44-3.448A1.637,1.637,0,0,0,36.022,0h0L22.372.023a1.637,1.637,0,0,0-1.624,1.844L21.186,5.3l-.008.187a1.154,1.154,0,0,0-.685-.277l-.377-.014a1.107,1.107,0,0,0-.846.314,1.176,1.176,0,0,0-.375.818l-.4,10.8a1.176,1.176,0,0,0,1.134,1.22M37.92,5.711,38.3,5.7h.025a.675.675,0,0,1,.676.65l.4,10.8a.676.676,0,0,1-.651.7l-.377.014a.648.648,0,0,1-.485-.18.673.673,0,0,1-.215-.47l-.4-10.8a.675.675,0,0,1,.65-.7M21.52.91a1.139,1.139,0,0,1,.852-.385L36.018.5h0A1.134,1.134,0,0,1,37.148,1.78l-.412,3.23-15.077.027L21.246,1.8A1.136,1.136,0,0,1,21.52.91m.16,4.63H36.707l.507,13.294a2.864,2.864,0,0,1-2.863,2.97H24.036a2.864,2.864,0,0,1-2.863-2.97ZM19.4,6.347a.674.674,0,0,1,.675-.65H20.1l.376.014a.676.676,0,0,1,.652.7l-.4,10.8a.673.673,0,0,1-.215.47.645.645,0,0,1-.485.18l-.376-.014a.673.673,0,0,1-.65-.7Z" transform="translate(10.161 4.017)"/>
        <path id="패스_41534" data-name="패스 41534" class="cls-1" d="M80.569,18.352l.377.014h.044a1.156,1.156,0,0,0,.652-.221l-.026.67a3.367,3.367,0,0,0,3.366,3.492H95.3a3.367,3.367,0,0,0,3.366-3.492l-.026-.664a1.157,1.157,0,0,0,.643.215h.044l.377-.014a1.179,1.179,0,0,0,1.135-1.22l-.4-10.8a1.179,1.179,0,0,0-1.179-1.133h-.043l-.377.014a1.151,1.151,0,0,0-.685.278L98.147,5.3l.437-3.432A1.637,1.637,0,0,0,96.962.023L83.315,0h0a1.636,1.636,0,0,0-1.626,1.844l.439,3.448c0,.005.006.008.007.013l-.007.188a1.153,1.153,0,0,0-.694-.284l-.377-.014a1.1,1.1,0,0,0-.846.314,1.176,1.176,0,0,0-.375.818l-.4,10.8a1.179,1.179,0,0,0,1.134,1.22M98.858,5.711l.376-.014h.025a.675.675,0,0,1,.676.65l.4,10.8a.676.676,0,0,1-.651.7l-.377.014a.651.651,0,0,1-.485-.18.673.673,0,0,1-.215-.47l-.4-10.8a.676.676,0,0,1,.651-.7M82.459.887A1.137,1.137,0,0,1,83.312.5h0L96.962.525A1.134,1.134,0,0,1,98.086,1.8l-.412,3.234L82.6,5.01l-.412-3.23a1.131,1.131,0,0,1,.275-.894m.167,4.654H97.653l.507,13.295A2.862,2.862,0,0,1,95.3,21.8H84.982a2.862,2.862,0,0,1-2.863-2.97Zm-2.29.806a.669.669,0,0,1,.215-.47.64.64,0,0,1,.485-.18l.376.014a.676.676,0,0,1,.652.7l-.4,10.8a.673.673,0,0,1-.215.47.642.642,0,0,1-.485.18l-.377-.014a.675.675,0,0,1-.65-.7Z" transform="translate(10.506 4.017)"/>
        <path id="패스_41535" data-name="패스 41535" class="cls-1" d="M50.1,18.352l.377.014h.044a1.157,1.157,0,0,0,.643-.215l-.025.664A3.365,3.365,0,0,0,54.5,22.307H64.819a3.367,3.367,0,0,0,3.366-3.492l-.025-.67a1.152,1.152,0,0,0,.651.221h.044l.377-.014a1.18,1.18,0,0,0,1.135-1.22l-.4-10.8a1.167,1.167,0,0,0-.375-.818,1.2,1.2,0,0,0-.846-.314l-.377.014a1.158,1.158,0,0,0-.694.283l-.007-.187c0-.005.006-.008.007-.013l.44-3.448A1.637,1.637,0,0,0,66.49,0h0L52.84.023a1.637,1.637,0,0,0-1.623,1.844L51.655,5.3l-.008.188a1.151,1.151,0,0,0-.686-.278l-.376-.014a1.2,1.2,0,0,0-.846.314,1.173,1.173,0,0,0-.376.818l-.4,10.8a1.177,1.177,0,0,0,1.134,1.22M68.388,5.711l.377-.014a.629.629,0,0,1,.485.18.669.669,0,0,1,.215.47l.4,10.8a.676.676,0,0,1-.651.7l-.377.014a.648.648,0,0,1-.485-.18.673.673,0,0,1-.215-.47l-.4-10.8a.676.676,0,0,1,.651-.7m-16.4-4.8A1.138,1.138,0,0,1,52.84.525L66.487.5h0A1.135,1.135,0,0,1,67.617,1.78L67.2,5.01l-15.077.027L51.715,1.8a1.133,1.133,0,0,1,.273-.893m.161,4.629H67.175l.507,13.295A2.862,2.862,0,0,1,64.819,21.8H54.5a2.862,2.862,0,0,1-2.862-2.97Zm-2.283.806a.673.673,0,0,1,.215-.47.633.633,0,0,1,.486-.18l.375.014a.676.676,0,0,1,.652.7l-.4,10.8a.668.668,0,0,1-.215.47.643.643,0,0,1-.485.18l-.377-.014a.675.675,0,0,1-.65-.7Z" transform="translate(10.333 4.017)"/>
        <path id="패스_41536" data-name="패스 41536" class="cls-1" d="M38.764,77.306l-.378-.014a1.078,1.078,0,0,0-.695.218l.026-.668a3.367,3.367,0,0,0-3.366-3.491H24.036a3.367,3.367,0,0,0-3.367,3.491l.026.666a1.166,1.166,0,0,0-.688-.216l-.376.014a1.177,1.177,0,0,0-1.134,1.22l.4,10.8a1.176,1.176,0,0,0,1.178,1.134h.044l.376-.014a1.164,1.164,0,0,0,.685-.277l.007.187-.437,3.432a1.637,1.637,0,0,0,1.624,1.844l13.647.023h0a1.637,1.637,0,0,0,1.625-1.844l-.439-3.448-.006-.011.007-.19a1.15,1.15,0,0,0,.693.284l.377.014h.043A1.18,1.18,0,0,0,39.5,89.329l.4-10.8a1.181,1.181,0,0,0-1.134-1.22M20.945,89.732a.675.675,0,0,1-.471.215l-.376.014a.658.658,0,0,1-.485-.18.669.669,0,0,1-.215-.47l-.4-10.8a.675.675,0,0,1,.651-.7h0l.375-.014h.025a.676.676,0,0,1,.675.651l.4,10.8a.669.669,0,0,1-.181.484m15.929,5.039a1.137,1.137,0,0,1-.853.385h0l-13.647-.023a1.135,1.135,0,0,1-1.125-1.278l.412-3.234,15.077.027.412,3.23a1.131,1.131,0,0,1-.275.894m-.166-4.654H21.679l-.507-13.294a2.864,2.864,0,0,1,2.864-2.97H34.351a2.862,2.862,0,0,1,2.863,2.97ZM39,89.311a.688.688,0,0,1-.7.65l-.377-.014a.674.674,0,0,1-.47-.215.665.665,0,0,1-.181-.484l.4-10.8a.676.676,0,0,1,.675-.651h.024l.377.014h0a.676.676,0,0,1,.651.7Z" transform="translate(10.161 4.326)"/>
        <path id="패스_41537" data-name="패스 41537" class="cls-1" d="M99.7,77.306l-.378-.014a1.068,1.068,0,0,0-.687.212l.025-.661A3.365,3.365,0,0,0,95.3,73.351H84.982a3.367,3.367,0,0,0-3.366,3.491l.026.671a1.16,1.16,0,0,0-.7-.221l-.377.014a1.181,1.181,0,0,0-1.134,1.22l.4,10.8a1.176,1.176,0,0,0,1.178,1.134h.044l.376-.014a1.153,1.153,0,0,0,.694-.284l.007.188c0,.005-.006.008-.007.013l-.439,3.448a1.637,1.637,0,0,0,1.626,1.844h0l13.647-.023a1.637,1.637,0,0,0,1.623-1.844l-.438-3.432.008-.188a1.151,1.151,0,0,0,.685.278l.377.014h.043a1.18,1.18,0,0,0,1.179-1.134l.4-10.8a1.181,1.181,0,0,0-1.134-1.22M81.883,89.732a.675.675,0,0,1-.471.215l-.376.014a.675.675,0,0,1-.7-.65l-.4-10.8a.676.676,0,0,1,.651-.7h0l.376-.014h.025a.676.676,0,0,1,.675.651l.4,10.8a.669.669,0,0,1-.181.484m15.931,5.015a1.138,1.138,0,0,1-.852.386l-13.647.023h0a1.135,1.135,0,0,1-1.128-1.278l.412-3.23,15.077-.027.412,3.234a1.133,1.133,0,0,1-.273.893m-.161-4.629H82.626l-.507-13.295a2.862,2.862,0,0,1,2.863-2.969H95.3a2.86,2.86,0,0,1,2.862,2.97Zm2.283-.806a.678.678,0,0,1-.7.65l-.377-.014a.674.674,0,0,1-.47-.215.665.665,0,0,1-.181-.484l.4-10.8a.676.676,0,0,1,.675-.651H99.3l.377.014h0a.676.676,0,0,1,.651.7Z" transform="translate(10.506 4.326)"/>
        <path id="패스_41538" data-name="패스 41538" class="cls-1" d="M69.234,77.306l-.378-.014a1.073,1.073,0,0,0-.7.218l.026-.667a3.367,3.367,0,0,0-3.366-3.492H54.505a3.367,3.367,0,0,0-3.366,3.491l.026.666a1.149,1.149,0,0,0-.688-.216l-.377.014a1.181,1.181,0,0,0-1.134,1.22l.4,10.8a1.178,1.178,0,0,0,1.179,1.134h.044l.375-.014a1.151,1.151,0,0,0,.686-.278l.007.188-.437,3.432a1.637,1.637,0,0,0,1.623,1.844l13.647.023h0a1.637,1.637,0,0,0,1.626-1.844l-.439-3.448c0-.005-.006-.008-.007-.013l.007-.188a1.15,1.15,0,0,0,.693.284l.378.014h.043a1.176,1.176,0,0,0,1.178-1.134l.4-10.8a1.179,1.179,0,0,0-1.133-1.22M51.414,89.732a.675.675,0,0,1-.471.215l-.375.014a.662.662,0,0,1-.486-.18.672.672,0,0,1-.215-.47l-.4-10.8a.676.676,0,0,1,.651-.7h0l.376-.014h.025a.676.676,0,0,1,.675.651l.4,10.8a.669.669,0,0,1-.181.484m15.93,5.039a1.138,1.138,0,0,1-.854.385h0l-13.647-.023a1.134,1.134,0,0,1-1.124-1.278l.412-3.234,15.077.027.412,3.23a1.131,1.131,0,0,1-.275.894m-.167-4.654H52.149l-.507-13.295a2.862,2.862,0,0,1,2.863-2.969H64.82a2.862,2.862,0,0,1,2.863,2.97Zm2.29-.806a.675.675,0,0,1-.7.65l-.378-.014a.674.674,0,0,1-.47-.215.665.665,0,0,1-.181-.484l.4-10.8a.676.676,0,0,1,.675-.651h.024l.377.014h0a.675.675,0,0,1,.65.7Z" transform="translate(10.333 4.326)"/>
      </g>
    </g>
    <g id="그룹_24856" data-name="그룹 24856" transform="translate(1618 990) rotate(90)">
      <g id="그룹_24735-2" data-name="그룹 24735" class="cls-5" transform="translate(-10 -4)">
        <path id="패스_41532-2" data-name="패스 41532" class="cls-1" d="M99.156,24.831H20.73A20.738,20.738,0,0,0,0,45.532v4.694a20.738,20.738,0,0,0,20.73,20.7H99.156a20.739,20.739,0,0,0,20.731-20.7V45.532a20.739,20.739,0,0,0-20.731-20.7m20.228,25.394a20.236,20.236,0,0,1-20.228,20.2H20.73A20.236,20.236,0,0,1,.5,50.225V45.532a20.236,20.236,0,0,1,20.227-20.2H99.156a20.236,20.236,0,0,1,20.228,20.2Z" transform="translate(10.057 4.121)"/>
        <path id="패스_41533-2" data-name="패스 41533" class="cls-1" d="M19.632,18.352l.376.014h.044a1.157,1.157,0,0,0,.643-.215l-.025.664a3.365,3.365,0,0,0,3.366,3.492H34.351a3.367,3.367,0,0,0,3.366-3.492l-.026-.669a1.154,1.154,0,0,0,.651.22h.044l.377-.014a1.179,1.179,0,0,0,1.135-1.22l-.4-10.8a1.179,1.179,0,0,0-1.179-1.133h-.043l-.377.014a1.158,1.158,0,0,0-.693.283L37.2,5.3l.006-.011.44-3.448A1.637,1.637,0,0,0,36.022,0h0L22.372.023a1.637,1.637,0,0,0-1.624,1.844L21.186,5.3l-.008.187a1.154,1.154,0,0,0-.685-.277l-.377-.014a1.107,1.107,0,0,0-.846.314,1.176,1.176,0,0,0-.375.818l-.4,10.8a1.176,1.176,0,0,0,1.134,1.22M37.92,5.711,38.3,5.7h.025a.675.675,0,0,1,.676.65l.4,10.8a.676.676,0,0,1-.651.7l-.377.014a.648.648,0,0,1-.485-.18.673.673,0,0,1-.215-.47l-.4-10.8a.675.675,0,0,1,.65-.7M21.52.91a1.139,1.139,0,0,1,.852-.385L36.018.5h0A1.134,1.134,0,0,1,37.148,1.78l-.412,3.23-15.077.027L21.246,1.8A1.136,1.136,0,0,1,21.52.91m.16,4.63H36.707l.507,13.294a2.864,2.864,0,0,1-2.863,2.97H24.036a2.864,2.864,0,0,1-2.863-2.97ZM19.4,6.347a.674.674,0,0,1,.675-.65H20.1l.376.014a.676.676,0,0,1,.652.7l-.4,10.8a.673.673,0,0,1-.215.47.645.645,0,0,1-.485.18l-.376-.014a.673.673,0,0,1-.65-.7Z" transform="translate(10.161 4.017)"/>
        <path id="패스_41534-2" data-name="패스 41534" class="cls-1" d="M80.569,18.352l.377.014h.044a1.156,1.156,0,0,0,.652-.221l-.026.67a3.367,3.367,0,0,0,3.366,3.492H95.3a3.367,3.367,0,0,0,3.366-3.492l-.026-.664a1.157,1.157,0,0,0,.643.215h.044l.377-.014a1.179,1.179,0,0,0,1.135-1.22l-.4-10.8a1.179,1.179,0,0,0-1.179-1.133h-.043l-.377.014a1.151,1.151,0,0,0-.685.278L98.147,5.3l.437-3.432A1.637,1.637,0,0,0,96.962.023L83.315,0h0a1.636,1.636,0,0,0-1.626,1.844l.439,3.448c0,.005.006.008.007.013l-.007.188a1.153,1.153,0,0,0-.694-.284l-.377-.014a1.1,1.1,0,0,0-.846.314,1.176,1.176,0,0,0-.375.818l-.4,10.8a1.179,1.179,0,0,0,1.134,1.22M98.858,5.711l.376-.014h.025a.675.675,0,0,1,.676.65l.4,10.8a.676.676,0,0,1-.651.7l-.377.014a.651.651,0,0,1-.485-.18.673.673,0,0,1-.215-.47l-.4-10.8a.676.676,0,0,1,.651-.7M82.459.887A1.137,1.137,0,0,1,83.312.5h0L96.962.525A1.134,1.134,0,0,1,98.086,1.8l-.412,3.234L82.6,5.01l-.412-3.23a1.131,1.131,0,0,1,.275-.894m.167,4.654H97.653l.507,13.295A2.862,2.862,0,0,1,95.3,21.8H84.982a2.862,2.862,0,0,1-2.863-2.97Zm-2.29.806a.669.669,0,0,1,.215-.47.64.64,0,0,1,.485-.18l.376.014a.676.676,0,0,1,.652.7l-.4,10.8a.673.673,0,0,1-.215.47.642.642,0,0,1-.485.18l-.377-.014a.675.675,0,0,1-.65-.7Z" transform="translate(10.506 4.017)"/>
        <path id="패스_41535-2" data-name="패스 41535" class="cls-1" d="M50.1,18.352l.377.014h.044a1.157,1.157,0,0,0,.643-.215l-.025.664A3.365,3.365,0,0,0,54.5,22.307H64.819a3.367,3.367,0,0,0,3.366-3.492l-.025-.67a1.152,1.152,0,0,0,.651.221h.044l.377-.014a1.18,1.18,0,0,0,1.135-1.22l-.4-10.8a1.167,1.167,0,0,0-.375-.818,1.2,1.2,0,0,0-.846-.314l-.377.014a1.158,1.158,0,0,0-.694.283l-.007-.187c0-.005.006-.008.007-.013l.44-3.448A1.637,1.637,0,0,0,66.49,0h0L52.84.023a1.637,1.637,0,0,0-1.623,1.844L51.655,5.3l-.008.188a1.151,1.151,0,0,0-.686-.278l-.376-.014a1.2,1.2,0,0,0-.846.314,1.173,1.173,0,0,0-.376.818l-.4,10.8a1.177,1.177,0,0,0,1.134,1.22M68.388,5.711l.377-.014a.629.629,0,0,1,.485.18.669.669,0,0,1,.215.47l.4,10.8a.676.676,0,0,1-.651.7l-.377.014a.648.648,0,0,1-.485-.18.673.673,0,0,1-.215-.47l-.4-10.8a.676.676,0,0,1,.651-.7m-16.4-4.8A1.138,1.138,0,0,1,52.84.525L66.487.5h0A1.135,1.135,0,0,1,67.617,1.78L67.2,5.01l-15.077.027L51.715,1.8a1.133,1.133,0,0,1,.273-.893m.161,4.629H67.175l.507,13.295A2.862,2.862,0,0,1,64.819,21.8H54.5a2.862,2.862,0,0,1-2.862-2.97Zm-2.283.806a.673.673,0,0,1,.215-.47.633.633,0,0,1,.486-.18l.375.014a.676.676,0,0,1,.652.7l-.4,10.8a.668.668,0,0,1-.215.47.643.643,0,0,1-.485.18l-.377-.014a.675.675,0,0,1-.65-.7Z" transform="translate(10.333 4.017)"/>
        <path id="패스_41536-2" data-name="패스 41536" class="cls-1" d="M38.764,77.306l-.378-.014a1.078,1.078,0,0,0-.695.218l.026-.668a3.367,3.367,0,0,0-3.366-3.491H24.036a3.367,3.367,0,0,0-3.367,3.491l.026.666a1.166,1.166,0,0,0-.688-.216l-.376.014a1.177,1.177,0,0,0-1.134,1.22l.4,10.8a1.176,1.176,0,0,0,1.178,1.134h.044l.376-.014a1.164,1.164,0,0,0,.685-.277l.007.187-.437,3.432a1.637,1.637,0,0,0,1.624,1.844l13.647.023h0a1.637,1.637,0,0,0,1.625-1.844l-.439-3.448-.006-.011.007-.19a1.15,1.15,0,0,0,.693.284l.377.014h.043A1.18,1.18,0,0,0,39.5,89.329l.4-10.8a1.181,1.181,0,0,0-1.134-1.22M20.945,89.732a.675.675,0,0,1-.471.215l-.376.014a.658.658,0,0,1-.485-.18.669.669,0,0,1-.215-.47l-.4-10.8a.675.675,0,0,1,.651-.7h0l.375-.014h.025a.676.676,0,0,1,.675.651l.4,10.8a.669.669,0,0,1-.181.484m15.929,5.039a1.137,1.137,0,0,1-.853.385h0l-13.647-.023a1.135,1.135,0,0,1-1.125-1.278l.412-3.234,15.077.027.412,3.23a1.131,1.131,0,0,1-.275.894m-.166-4.654H21.679l-.507-13.294a2.864,2.864,0,0,1,2.864-2.97H34.351a2.862,2.862,0,0,1,2.863,2.97ZM39,89.311a.688.688,0,0,1-.7.65l-.377-.014a.674.674,0,0,1-.47-.215.665.665,0,0,1-.181-.484l.4-10.8a.676.676,0,0,1,.675-.651h.024l.377.014h0a.676.676,0,0,1,.651.7Z" transform="translate(10.161 4.326)"/>
        <path id="패스_41537-2" data-name="패스 41537" class="cls-1" d="M99.7,77.306l-.378-.014a1.068,1.068,0,0,0-.687.212l.025-.661A3.365,3.365,0,0,0,95.3,73.351H84.982a3.367,3.367,0,0,0-3.366,3.491l.026.671a1.16,1.16,0,0,0-.7-.221l-.377.014a1.181,1.181,0,0,0-1.134,1.22l.4,10.8a1.176,1.176,0,0,0,1.178,1.134h.044l.376-.014a1.153,1.153,0,0,0,.694-.284l.007.188c0,.005-.006.008-.007.013l-.439,3.448a1.637,1.637,0,0,0,1.626,1.844h0l13.647-.023a1.637,1.637,0,0,0,1.623-1.844l-.438-3.432.008-.188a1.151,1.151,0,0,0,.685.278l.377.014h.043a1.18,1.18,0,0,0,1.179-1.134l.4-10.8a1.181,1.181,0,0,0-1.134-1.22M81.883,89.732a.675.675,0,0,1-.471.215l-.376.014a.675.675,0,0,1-.7-.65l-.4-10.8a.676.676,0,0,1,.651-.7h0l.376-.014h.025a.676.676,0,0,1,.675.651l.4,10.8a.669.669,0,0,1-.181.484m15.931,5.015a1.138,1.138,0,0,1-.852.386l-13.647.023h0a1.135,1.135,0,0,1-1.128-1.278l.412-3.23,15.077-.027.412,3.234a1.133,1.133,0,0,1-.273.893m-.161-4.629H82.626l-.507-13.295a2.862,2.862,0,0,1,2.863-2.969H95.3a2.86,2.86,0,0,1,2.862,2.97Zm2.283-.806a.678.678,0,0,1-.7.65l-.377-.014a.674.674,0,0,1-.47-.215.665.665,0,0,1-.181-.484l.4-10.8a.676.676,0,0,1,.675-.651H99.3l.377.014h0a.676.676,0,0,1,.651.7Z" transform="translate(10.506 4.326)"/>
        <path id="패스_41538-2" data-name="패스 41538" class="cls-1" d="M69.234,77.306l-.378-.014a1.073,1.073,0,0,0-.7.218l.026-.667a3.367,3.367,0,0,0-3.366-3.492H54.505a3.367,3.367,0,0,0-3.366,3.491l.026.666a1.149,1.149,0,0,0-.688-.216l-.377.014a1.181,1.181,0,0,0-1.134,1.22l.4,10.8a1.178,1.178,0,0,0,1.179,1.134h.044l.375-.014a1.151,1.151,0,0,0,.686-.278l.007.188-.437,3.432a1.637,1.637,0,0,0,1.623,1.844l13.647.023h0a1.637,1.637,0,0,0,1.626-1.844l-.439-3.448c0-.005-.006-.008-.007-.013l.007-.188a1.15,1.15,0,0,0,.693.284l.378.014h.043a1.176,1.176,0,0,0,1.178-1.134l.4-10.8a1.179,1.179,0,0,0-1.133-1.22M51.414,89.732a.675.675,0,0,1-.471.215l-.375.014a.662.662,0,0,1-.486-.18.672.672,0,0,1-.215-.47l-.4-10.8a.676.676,0,0,1,.651-.7h0l.376-.014h.025a.676.676,0,0,1,.675.651l.4,10.8a.669.669,0,0,1-.181.484m15.93,5.039a1.138,1.138,0,0,1-.854.385h0l-13.647-.023a1.134,1.134,0,0,1-1.124-1.278l.412-3.234,15.077.027.412,3.23a1.131,1.131,0,0,1-.275.894m-.167-4.654H52.149l-.507-13.295a2.862,2.862,0,0,1,2.863-2.969H64.82a2.862,2.862,0,0,1,2.863,2.97Zm2.29-.806a.675.675,0,0,1-.7.65l-.378-.014a.674.674,0,0,1-.47-.215.665.665,0,0,1-.181-.484l.4-10.8a.676.676,0,0,1,.675-.651h.024l.377.014h0a.675.675,0,0,1,.65.7Z" transform="translate(10.333 4.326)"/>
      </g>
    </g>
    <g id="그룹_24855" data-name="그룹 24855" transform="translate(550 586) rotate(-180)">
      <g id="그룹_24735-3" data-name="그룹 24735" class="cls-5" transform="translate(-10 -4)">
        <path id="패스_41532-3" data-name="패스 41532" class="cls-1" d="M99.156,24.831H20.73A20.738,20.738,0,0,0,0,45.532v4.694a20.738,20.738,0,0,0,20.73,20.7H99.156a20.739,20.739,0,0,0,20.731-20.7V45.532a20.739,20.739,0,0,0-20.731-20.7m20.228,25.394a20.236,20.236,0,0,1-20.228,20.2H20.73A20.236,20.236,0,0,1,.5,50.225V45.532a20.236,20.236,0,0,1,20.227-20.2H99.156a20.236,20.236,0,0,1,20.228,20.2Z" transform="translate(10.057 4.121)"/>
        <path id="패스_41533-3" data-name="패스 41533" class="cls-1" d="M19.632,18.352l.376.014h.044a1.157,1.157,0,0,0,.643-.215l-.025.664a3.365,3.365,0,0,0,3.366,3.492H34.351a3.367,3.367,0,0,0,3.366-3.492l-.026-.669a1.154,1.154,0,0,0,.651.22h.044l.377-.014a1.179,1.179,0,0,0,1.135-1.22l-.4-10.8a1.179,1.179,0,0,0-1.179-1.133h-.043l-.377.014a1.158,1.158,0,0,0-.693.283L37.2,5.3l.006-.011.44-3.448A1.637,1.637,0,0,0,36.022,0h0L22.372.023a1.637,1.637,0,0,0-1.624,1.844L21.186,5.3l-.008.187a1.154,1.154,0,0,0-.685-.277l-.377-.014a1.107,1.107,0,0,0-.846.314,1.176,1.176,0,0,0-.375.818l-.4,10.8a1.176,1.176,0,0,0,1.134,1.22M37.92,5.711,38.3,5.7h.025a.675.675,0,0,1,.676.65l.4,10.8a.676.676,0,0,1-.651.7l-.377.014a.648.648,0,0,1-.485-.18.673.673,0,0,1-.215-.47l-.4-10.8a.675.675,0,0,1,.65-.7M21.52.91a1.139,1.139,0,0,1,.852-.385L36.018.5h0A1.134,1.134,0,0,1,37.148,1.78l-.412,3.23-15.077.027L21.246,1.8A1.136,1.136,0,0,1,21.52.91m.16,4.63H36.707l.507,13.294a2.864,2.864,0,0,1-2.863,2.97H24.036a2.864,2.864,0,0,1-2.863-2.97ZM19.4,6.347a.674.674,0,0,1,.675-.65H20.1l.376.014a.676.676,0,0,1,.652.7l-.4,10.8a.673.673,0,0,1-.215.47.645.645,0,0,1-.485.18l-.376-.014a.673.673,0,0,1-.65-.7Z" transform="translate(10.161 4.017)"/>
        <path id="패스_41534-3" data-name="패스 41534" class="cls-1" d="M80.569,18.352l.377.014h.044a1.156,1.156,0,0,0,.652-.221l-.026.67a3.367,3.367,0,0,0,3.366,3.492H95.3a3.367,3.367,0,0,0,3.366-3.492l-.026-.664a1.157,1.157,0,0,0,.643.215h.044l.377-.014a1.179,1.179,0,0,0,1.135-1.22l-.4-10.8a1.179,1.179,0,0,0-1.179-1.133h-.043l-.377.014a1.151,1.151,0,0,0-.685.278L98.147,5.3l.437-3.432A1.637,1.637,0,0,0,96.962.023L83.315,0h0a1.636,1.636,0,0,0-1.626,1.844l.439,3.448c0,.005.006.008.007.013l-.007.188a1.153,1.153,0,0,0-.694-.284l-.377-.014a1.1,1.1,0,0,0-.846.314,1.176,1.176,0,0,0-.375.818l-.4,10.8a1.179,1.179,0,0,0,1.134,1.22M98.858,5.711l.376-.014h.025a.675.675,0,0,1,.676.65l.4,10.8a.676.676,0,0,1-.651.7l-.377.014a.651.651,0,0,1-.485-.18.673.673,0,0,1-.215-.47l-.4-10.8a.676.676,0,0,1,.651-.7M82.459.887A1.137,1.137,0,0,1,83.312.5h0L96.962.525A1.134,1.134,0,0,1,98.086,1.8l-.412,3.234L82.6,5.01l-.412-3.23a1.131,1.131,0,0,1,.275-.894m.167,4.654H97.653l.507,13.295A2.862,2.862,0,0,1,95.3,21.8H84.982a2.862,2.862,0,0,1-2.863-2.97Zm-2.29.806a.669.669,0,0,1,.215-.47.64.64,0,0,1,.485-.18l.376.014a.676.676,0,0,1,.652.7l-.4,10.8a.673.673,0,0,1-.215.47.642.642,0,0,1-.485.18l-.377-.014a.675.675,0,0,1-.65-.7Z" transform="translate(10.506 4.017)"/>
        <path id="패스_41535-3" data-name="패스 41535" class="cls-1" d="M50.1,18.352l.377.014h.044a1.157,1.157,0,0,0,.643-.215l-.025.664A3.365,3.365,0,0,0,54.5,22.307H64.819a3.367,3.367,0,0,0,3.366-3.492l-.025-.67a1.152,1.152,0,0,0,.651.221h.044l.377-.014a1.18,1.18,0,0,0,1.135-1.22l-.4-10.8a1.167,1.167,0,0,0-.375-.818,1.2,1.2,0,0,0-.846-.314l-.377.014a1.158,1.158,0,0,0-.694.283l-.007-.187c0-.005.006-.008.007-.013l.44-3.448A1.637,1.637,0,0,0,66.49,0h0L52.84.023a1.637,1.637,0,0,0-1.623,1.844L51.655,5.3l-.008.188a1.151,1.151,0,0,0-.686-.278l-.376-.014a1.2,1.2,0,0,0-.846.314,1.173,1.173,0,0,0-.376.818l-.4,10.8a1.177,1.177,0,0,0,1.134,1.22M68.388,5.711l.377-.014a.629.629,0,0,1,.485.18.669.669,0,0,1,.215.47l.4,10.8a.676.676,0,0,1-.651.7l-.377.014a.648.648,0,0,1-.485-.18.673.673,0,0,1-.215-.47l-.4-10.8a.676.676,0,0,1,.651-.7m-16.4-4.8A1.138,1.138,0,0,1,52.84.525L66.487.5h0A1.135,1.135,0,0,1,67.617,1.78L67.2,5.01l-15.077.027L51.715,1.8a1.133,1.133,0,0,1,.273-.893m.161,4.629H67.175l.507,13.295A2.862,2.862,0,0,1,64.819,21.8H54.5a2.862,2.862,0,0,1-2.862-2.97Zm-2.283.806a.673.673,0,0,1,.215-.47.633.633,0,0,1,.486-.18l.375.014a.676.676,0,0,1,.652.7l-.4,10.8a.668.668,0,0,1-.215.47.643.643,0,0,1-.485.18l-.377-.014a.675.675,0,0,1-.65-.7Z" transform="translate(10.333 4.017)"/>
        <path id="패스_41536-3" data-name="패스 41536" class="cls-1" d="M38.764,77.306l-.378-.014a1.078,1.078,0,0,0-.695.218l.026-.668a3.367,3.367,0,0,0-3.366-3.491H24.036a3.367,3.367,0,0,0-3.367,3.491l.026.666a1.166,1.166,0,0,0-.688-.216l-.376.014a1.177,1.177,0,0,0-1.134,1.22l.4,10.8a1.176,1.176,0,0,0,1.178,1.134h.044l.376-.014a1.164,1.164,0,0,0,.685-.277l.007.187-.437,3.432a1.637,1.637,0,0,0,1.624,1.844l13.647.023h0a1.637,1.637,0,0,0,1.625-1.844l-.439-3.448-.006-.011.007-.19a1.15,1.15,0,0,0,.693.284l.377.014h.043A1.18,1.18,0,0,0,39.5,89.329l.4-10.8a1.181,1.181,0,0,0-1.134-1.22M20.945,89.732a.675.675,0,0,1-.471.215l-.376.014a.658.658,0,0,1-.485-.18.669.669,0,0,1-.215-.47l-.4-10.8a.675.675,0,0,1,.651-.7h0l.375-.014h.025a.676.676,0,0,1,.675.651l.4,10.8a.669.669,0,0,1-.181.484m15.929,5.039a1.137,1.137,0,0,1-.853.385h0l-13.647-.023a1.135,1.135,0,0,1-1.125-1.278l.412-3.234,15.077.027.412,3.23a1.131,1.131,0,0,1-.275.894m-.166-4.654H21.679l-.507-13.294a2.864,2.864,0,0,1,2.864-2.97H34.351a2.862,2.862,0,0,1,2.863,2.97ZM39,89.311a.688.688,0,0,1-.7.65l-.377-.014a.674.674,0,0,1-.47-.215.665.665,0,0,1-.181-.484l.4-10.8a.676.676,0,0,1,.675-.651h.024l.377.014h0a.676.676,0,0,1,.651.7Z" transform="translate(10.161 4.326)"/>
        <path id="패스_41537-3" data-name="패스 41537" class="cls-1" d="M99.7,77.306l-.378-.014a1.068,1.068,0,0,0-.687.212l.025-.661A3.365,3.365,0,0,0,95.3,73.351H84.982a3.367,3.367,0,0,0-3.366,3.491l.026.671a1.16,1.16,0,0,0-.7-.221l-.377.014a1.181,1.181,0,0,0-1.134,1.22l.4,10.8a1.176,1.176,0,0,0,1.178,1.134h.044l.376-.014a1.153,1.153,0,0,0,.694-.284l.007.188c0,.005-.006.008-.007.013l-.439,3.448a1.637,1.637,0,0,0,1.626,1.844h0l13.647-.023a1.637,1.637,0,0,0,1.623-1.844l-.438-3.432.008-.188a1.151,1.151,0,0,0,.685.278l.377.014h.043a1.18,1.18,0,0,0,1.179-1.134l.4-10.8a1.181,1.181,0,0,0-1.134-1.22M81.883,89.732a.675.675,0,0,1-.471.215l-.376.014a.675.675,0,0,1-.7-.65l-.4-10.8a.676.676,0,0,1,.651-.7h0l.376-.014h.025a.676.676,0,0,1,.675.651l.4,10.8a.669.669,0,0,1-.181.484m15.931,5.015a1.138,1.138,0,0,1-.852.386l-13.647.023h0a1.135,1.135,0,0,1-1.128-1.278l.412-3.23,15.077-.027.412,3.234a1.133,1.133,0,0,1-.273.893m-.161-4.629H82.626l-.507-13.295a2.862,2.862,0,0,1,2.863-2.969H95.3a2.86,2.86,0,0,1,2.862,2.97Zm2.283-.806a.678.678,0,0,1-.7.65l-.377-.014a.674.674,0,0,1-.47-.215.665.665,0,0,1-.181-.484l.4-10.8a.676.676,0,0,1,.675-.651H99.3l.377.014h0a.676.676,0,0,1,.651.7Z" transform="translate(10.506 4.326)"/>
        <path id="패스_41538-3" data-name="패스 41538" class="cls-1" d="M69.234,77.306l-.378-.014a1.073,1.073,0,0,0-.7.218l.026-.667a3.367,3.367,0,0,0-3.366-3.492H54.505a3.367,3.367,0,0,0-3.366,3.491l.026.666a1.149,1.149,0,0,0-.688-.216l-.377.014a1.181,1.181,0,0,0-1.134,1.22l.4,10.8a1.178,1.178,0,0,0,1.179,1.134h.044l.375-.014a1.151,1.151,0,0,0,.686-.278l.007.188-.437,3.432a1.637,1.637,0,0,0,1.623,1.844l13.647.023h0a1.637,1.637,0,0,0,1.626-1.844l-.439-3.448c0-.005-.006-.008-.007-.013l.007-.188a1.15,1.15,0,0,0,.693.284l.378.014h.043a1.176,1.176,0,0,0,1.178-1.134l.4-10.8a1.179,1.179,0,0,0-1.133-1.22M51.414,89.732a.675.675,0,0,1-.471.215l-.375.014a.662.662,0,0,1-.486-.18.672.672,0,0,1-.215-.47l-.4-10.8a.676.676,0,0,1,.651-.7h0l.376-.014h.025a.676.676,0,0,1,.675.651l.4,10.8a.669.669,0,0,1-.181.484m15.93,5.039a1.138,1.138,0,0,1-.854.385h0l-13.647-.023a1.134,1.134,0,0,1-1.124-1.278l.412-3.234,15.077.027.412,3.23a1.131,1.131,0,0,1-.275.894m-.167-4.654H52.149l-.507-13.295a2.862,2.862,0,0,1,2.863-2.969H64.82a2.862,2.862,0,0,1,2.863,2.97Zm2.29-.806a.675.675,0,0,1-.7.65l-.378-.014a.674.674,0,0,1-.47-.215.665.665,0,0,1-.181-.484l.4-10.8a.676.676,0,0,1,.675-.651h.024l.377.014h0a.675.675,0,0,1,.65.7Z" transform="translate(10.333 4.326)"/>
      </g>
    </g>
    <g id="그룹_24739" data-name="그룹 24739" transform="translate(1393.754 283)">
      <g id="그룹_24738" data-name="그룹 24738" class="cls-6">
        <path id="패스_41539" data-name="패스 41539" class="cls-1" d="M97.5,0H16.463a16.463,16.463,0,0,0,0,32.926H97.5a.25.25,0,0,0,.25-.25V.25A.25.25,0,0,0,97.5,0m-.25,32.426H16.463A15.963,15.963,0,0,1,16.463.5H97.247Z"/>
        <path id="패스_41540" data-name="패스 41540" class="cls-1" d="M62.8,45.083c-.017-.109-.026-.217-.047-.325l0-.007a9.705,9.705,0,0,0-19.067.007v.007a9.709,9.709,0,1,0,19.247,1.81c0-.31-.017-.624-.048-.938-.018-.188-.051-.37-.08-.554m-9.584-7.717A9.224,9.224,0,0,1,62.251,44.8a9.2,9.2,0,0,1-18.07-.01,9.224,9.224,0,0,1,9.034-7.426m8.641,12.371c-.051.14-.1.283-.154.419a9.21,9.21,0,0,1-17.695-3.581c0-.037,0-.074,0-.11,0-.1.011-.2.015-.3a9.71,9.71,0,0,0,18.381.009c.006.135.02.267.02.4a9.168,9.168,0,0,1-.415,2.736c-.045.145-.1.283-.155.424"/>
        <path id="패스_41541" data-name="패스 41541" class="cls-1" d="M30.079,45.12c-.018-.121-.029-.241-.051-.362l-.006-.009a9.587,9.587,0,1,0,.18,1.825c0-.306-.018-.618-.049-.933-.017-.176-.048-.348-.074-.521m-9.59-7.755A9.225,9.225,0,0,1,29.525,44.8a9.2,9.2,0,0,1-18.07-.012,9.224,9.224,0,0,1,9.034-7.425m8.487,12.792a9.21,9.21,0,0,1-17.694-3.583c0-.049,0-.1,0-.147,0-.089.01-.176.014-.265a9.71,9.71,0,0,0,18.381.012c.006.134.021.267.021.4a9.165,9.165,0,0,1-.725,3.58"/>
        <path id="패스_41542" data-name="패스 41542" class="cls-1" d="M94.934,45.12c-.018-.121-.029-.241-.051-.362l-.006-.009a9.612,9.612,0,1,0,.179,1.825c0-.306-.017-.618-.048-.933-.017-.176-.048-.348-.074-.521m-9.59-7.755A9.226,9.226,0,0,1,94.38,44.8a9.2,9.2,0,0,1-18.07-.012,9.223,9.223,0,0,1,9.034-7.425m8.487,12.792a9.21,9.21,0,0,1-17.695-3.583c0-.049,0-.1,0-.147,0-.089.01-.176.014-.265a9.71,9.71,0,0,0,18.381.012c.006.134.02.267.02.4a9.164,9.164,0,0,1-.724,3.58"/>
      </g>
    </g>
    <text id="탕비실" class="cls-4" transform="translate(1339 338)"><tspan x="-24.39" y="0">탕비실</tspan></text>
    <text id="Agility" class="cls-7" transform="translate(1295 468)"><tspan x="-23.321" y="0">Agility</tspan></text>
    <text id="대표이사" class="cls-4" transform="translate(953 435)"><tspan x="-32.445" y="0">대표이사</tspan></text>
    <text id="Teamwork" class="cls-7" transform="translate(660 545)"><tspan x="-40.415" y="0">Teamwork</tspan></text>
    <text id="남자_화장실" data-name="남자 화장실" class="cls-4" transform="translate(1560 341)"><tspan x="-42.291" y="0">남자 화장실</tspan></text>
    <text id="여자_화장실" data-name="여자 화장실" class="cls-4" transform="translate(1810 341)"><tspan x="-42.291" y="0">여자 화장실</tspan></text>
    <text id="HR_팀" data-name="HR 팀" class="cls-7" transform="translate(1780 847)"><tspan x="-22.511" y="0">HR </tspan><tspan class="cls-8" y="0">팀</tspan></text>
    <text id="Growth" class="cls-7" transform="translate(1570 834)"><tspan x="-27.756" y="0">Growth</tspan></text>
    <text id="Trust" class="cls-4" transform="translate(1570 964)"><tspan x="-20.385" y="0">Trust</tspan></text>
    <text id="Finance_팀" data-name="Finance 팀" class="cls-7" transform="translate(1780 1051)"><tspan x="-39.961" y="0">Finance</tspan><tspan class="cls-9" y="0" xml:space="preserve"> 팀</tspan></text>
  </g>
</svg>
